<?xml version="1.0" encoding="utf-8"?>
<!-- Generator: Adobe Illustrator 19.0.0, SVG Export Plug-In . SVG Version: 6.00 Build 0)  -->
<svg version="1.1" id="Layer_1" xmlns="http://www.w3.org/2000/svg" xmlns:xlink="http://www.w3.org/1999/xlink" x="0px" y="0px"
	 viewBox="0 0 500 500" style="enable-background:new 0 0 500 500;" xml:space="preserve">
<style type="text/css">
	.st0{fill:#1D427C;}
	.st1{fill:#EC8023;}
	.st2{fill:#FFFFFF;}
	.st3{fill:#F19320;}
</style>
<g id="XMLID_1_">
	<polygon id="XMLID_3_" class="st0" points="214.3,263.7 217.6,263.7 225.1,277.5 225.2,277.5 225.2,263.7 227.7,263.7 227.7,280.8 
		224.5,280.8 216.8,266.8 216.7,266.8 216.7,280.8 214.3,280.8 	"/>
	<path id="XMLID_6_" class="st0" d="M232.5,271.2c0.9-0.8,2.3-1.3,3.6-1.3c2.3,0,3.1,1.1,3.1,3.3c-0.9-0.1-1.5-0.1-2.5-0.1
		c-2.4,0-5.8,1-5.8,4.1c0,2.7,1.9,3.9,4.6,3.9c2.1,0,3.3-1.2,3.9-1.9h0v1.6h2.2c-0.1-0.4-0.1-1-0.1-2.5v-5.2c0-3.4-1.4-5.2-5-5.2
		c-1.6,0-3,0.5-4.1,1.2L232.5,271.2z M239.2,276c0,1.9-1.2,3.3-3.5,3.3c-1,0-2.3-0.7-2.3-2c0-2.2,3.1-2.4,4.3-2.4c0.5,0,1,0,1.5,0
		V276z"/>
	<path id="XMLID_7_" class="st0" d="M252,270.2h-3.3v6.8c0,1.4,0.9,2.2,1.9,2.2c0.7,0,1.2-0.2,1.6-0.4v2c-0.5,0.1-1.2,0.3-2,0.3
		c-2.4,0-3.8-1.1-3.8-3.6v-7.3h-2.8v-1.9h2.8v-2.9l2.3-0.7v3.6h3.3L252,270.2L252,270.2z"/>
	<path id="XMLID_10_" class="st0" d="M257.7,263h-2.6v2.6h2.6V263z M255.2,280.8h2.3v-12.5h-2.3V280.8z"/>
	<path id="XMLID_13_" class="st0" d="M260.9,274.6c0,3.6,2.6,6.5,6.4,6.5c3.7,0,6.3-3,6.3-6.5c0-3.8-2.5-6.5-6.3-6.5
		C263.5,268.1,260.9,270.8,260.9,274.6 M263.4,274.6c0-2.4,1.4-4.7,3.9-4.7c2.4,0,3.9,2.3,3.9,4.7c0,2.2-1.2,4.7-3.9,4.7
		C264.6,279.3,263.4,276.8,263.4,274.6"/>
	<path id="XMLID_14_" class="st0" d="M276.7,268.4h2.2v2h0c0.7-1.4,2.4-2.3,4.1-2.3c3.2,0,4.7,2,4.7,5.4v7.4h-2.3v-6.5
		c0-2.9-0.6-4.3-2.6-4.5c-2.6,0-3.8,2.1-3.8,5.1v5.8h-2.3V268.4L276.7,268.4z"/>
	<path id="XMLID_17_" class="st0" d="M292.4,271.2c0.9-0.8,2.3-1.3,3.6-1.3c2.3,0,3.1,1.1,3.1,3.3c-0.9-0.1-1.5-0.1-2.4-0.1
		c-2.4,0-5.8,1-5.8,4.1c0,2.7,1.9,3.9,4.6,3.9c2.1,0,3.3-1.2,3.9-1.9h0v1.6h2.2c0-0.4-0.1-1-0.1-2.5v-5.2c0-3.4-1.4-5.2-5-5.2
		c-1.6,0-3,0.5-4.1,1.2L292.4,271.2z M299.1,276c0,1.9-1.2,3.3-3.5,3.3c-1.1,0-2.3-0.7-2.3-2c0-2.2,3.1-2.4,4.3-2.4c0.5,0,1,0,1.5,0
		V276L299.1,276z"/>
	<rect id="XMLID_18_" x="305.6" y="262.5" class="st0" width="2.3" height="18.4"/>
	<path id="XMLID_19_" class="st0" d="M331.8,273.8c0,4.8-2.4,7.4-6.6,7.4c-4.2,0-6.6-2.6-6.6-7.4v-10h2.5v9.7c0,3.3,1,5.5,4.2,5.5
		c3.2,0,4.2-2.3,4.2-5.5v-9.7h2.5L331.8,273.8L331.8,273.8z"/>
	<path id="XMLID_20_" class="st0" d="M336,268.4h2.2v2h0c0.7-1.4,2.4-2.3,4.1-2.3c3.2,0,4.7,2,4.7,5.4v7.4h-2.3v-6.5
		c0-2.9-0.6-4.3-2.7-4.5c-2.6,0-3.8,2.1-3.8,5.1v5.8H336V268.4z"/>
	<path id="XMLID_23_" class="st0" d="M353.7,265.6h-2.6V263h2.6V265.6z M351.2,268.4h2.3v12.5h-2.3V268.4z"/>
	<polygon id="XMLID_24_" class="st0" points="363.3,280.8 360.5,280.8 356,268.3 358.6,268.3 362,278.5 362,278.5 365.5,268.3 
		367.8,268.3 	"/>
	<path id="XMLID_27_" class="st0" d="M379.6,278c-0.6,0.5-2.3,1.2-3.8,1.2c-2.2,0-4.1-1.7-4.1-4.2h8.9c0-4-1.3-7.1-5.5-7.1
		c-3.5,0-5.9,2.6-5.9,6.3c0,4.1,2,6.8,6.5,6.8c2.1,0,3.1-0.5,3.9-0.8V278z M371.6,273.4c0.2-1.6,1.1-3.5,3.4-3.5
		c2,0,3.1,1.6,3.1,3.5H371.6z"/>
	<path id="XMLID_28_" class="st0" d="M383.6,268.4h2.2v1.9h0.1c0.6-1.3,1.9-2.2,3.3-2.2c0.7,0,1,0.1,1.5,0.2v2.1
		c-0.4-0.2-0.9-0.2-1.3-0.2c-2.1,0-3.4,2-3.4,5.1v5.7h-2.3L383.6,268.4L383.6,268.4z"/>
	<path id="XMLID_29_" class="st0" d="M392.2,278.4c0.9,0.6,2.2,0.9,2.9,0.9c1.1,0,2.4-0.4,2.4-1.8c0-2.3-5.4-2.1-5.4-5.6
		c0-2.6,1.9-3.8,4.4-3.8c1.1,0,2,0.2,2.9,0.5l-0.2,2c-0.5-0.3-1.9-0.6-2.4-0.6c-1.2,0-2.2,0.5-2.2,1.5c0,2.5,5.4,1.8,5.4,5.8
		c0,2.7-2.1,3.9-4.4,3.9c-1.2,0-2.4-0.1-3.4-0.7L392.2,278.4z"/>
	<path id="XMLID_32_" class="st0" d="M405.4,265.6h-2.6V263h2.6V265.6z M403,268.4h2.3v12.5H403V268.4z"/>
	<path id="XMLID_33_" class="st0" d="M416.1,270.2h-3.3v6.8c0,1.4,0.9,2.2,1.9,2.2c0.7,0,1.2-0.2,1.6-0.4v2c-0.5,0.1-1.2,0.3-2,0.3
		c-2.4,0-3.8-1.1-3.8-3.6v-7.3h-2.8v-1.9h2.8v-2.9l2.3-0.7v3.6h3.3V270.2z"/>
	<path id="XMLID_34_" class="st0" d="M418.1,284.2c0.3,0.1,0.7,0.2,1.1,0.2c2.1,0,2.7-2.8,2.7-3.1c0-0.3-0.3-0.9-0.4-1.3l-4.2-11.7
		h2.5l3.4,10.3h0l3.4-10.3h2.3l-4.6,12.8c-0.9,2.4-1.8,5.2-4.8,5.2c-0.7,0-1.2-0.1-1.6-0.2L418.1,284.2z"/>
	<path id="XMLID_37_" class="st0" d="M213.2,303.6c0,3.6,2.6,6.5,6.4,6.5c3.7,0,6.3-3,6.3-6.5c0-3.8-2.6-6.5-6.3-6.5
		C215.8,297,213.2,299.8,213.2,303.6 M215.7,303.6c0-2.4,1.4-4.7,3.9-4.7c2.4,0,3.9,2.3,3.9,4.7c0,2.2-1.2,4.7-3.9,4.7
		C216.9,308.2,215.7,305.8,215.7,303.6"/>
	<path id="XMLID_38_" class="st0" d="M230.5,299.2h-2.9v-1.9h2.9v-1.2c0-3,0.8-5,4.2-5c0.6,0,1.1,0.1,1.5,0.2l-0.1,1.9
		c-0.3-0.1-0.7-0.1-1.1-0.1c-2,0-2.2,1.3-2.2,3v1.3h3.3v1.9h-3.3v10.6h-2.3L230.5,299.2L230.5,299.2z"/>
	<path id="XMLID_39_" class="st0" d="M252.7,295.3c-1.2-0.5-1.9-0.7-3.2-0.7c-1.4,0-3,0.5-3,2.3c0,3.3,7.4,2.5,7.4,8.2
		c0,3.6-2.8,5.1-6.2,5.1c-1.2,0-2.4-0.3-3.5-0.7l0.2-2.3c0.8,0.3,2.3,0.8,3.6,0.8c1.4,0,3.4-0.8,3.4-2.8c0-3.8-7.4-2.8-7.4-8.1
		c0-3,2.4-4.7,5.5-4.7c1.1,0,2.5,0.2,3.6,0.6L252.7,295.3z"/>
	<path id="XMLID_42_" class="st0" d="M259.7,294.5h-2.6v-2.6h2.6V294.5z M257.3,297.3h2.3v12.5h-2.3V297.3z"/>
	<path id="XMLID_43_" class="st0" d="M263.8,297.3h2.2v2h0c0.7-1.4,2.4-2.3,4.1-2.3c3.2,0,4.7,2,4.7,5.4v7.4h-2.3v-6.5
		c0-2.9-0.6-4.3-2.6-4.5c-2.6,0-3.8,2.1-3.8,5.1v5.8h-2.3V297.3z"/>
	<path id="XMLID_46_" class="st0" d="M289.8,297.3h-2.1v1.9h-0.1c-0.7-1.3-1.9-2.2-4.1-2.2c-3.8,0-5.6,3.4-5.6,6.6
		c0,3.2,1.8,6.1,5.3,6.1c1.6,0,3.2-0.6,4.2-1.9h0v1.2c0,2.6-1.4,4.3-3.9,4.3c-1.7,0-2.7-0.3-4.5-1.1l-0.2,2.1c2,0.7,3.2,0.9,4.5,0.9
		c4.5,0,6.4-2.2,6.4-6V297.3L289.8,297.3z M283.9,308c-2.2,0-3.5-2.1-3.5-4.4c0-2.1,1.2-4.7,3.5-4.7c2.5,0,3.6,2.2,3.6,4.8
		C287.5,306,286,308,283.9,308"/>
	<path id="XMLID_49_" class="st0" d="M294.4,300.2c0.9-0.8,2.3-1.3,3.6-1.3c2.3,0,3.1,1.1,3.1,3.3c-0.9-0.1-1.5-0.1-2.4-0.1
		c-2.4,0-5.8,1-5.8,4.1c0,2.7,1.9,3.9,4.6,3.9c2.1,0,3.3-1.2,3.9-1.9h0v1.6h2.2c0-0.4-0.1-1-0.1-2.5v-5.2c0-3.4-1.5-5.2-5-5.2
		c-1.6,0-3,0.5-4.1,1.2L294.4,300.2z M301.2,305c0,1.9-1.2,3.3-3.5,3.3c-1.1,0-2.3-0.7-2.3-2c0-2.2,3.1-2.4,4.3-2.4c0.5,0,1,0,1.5,0
		L301.2,305L301.2,305z"/>
	<path id="XMLID_52_" class="st0" d="M307.4,315h2.3v-6.9h0c0.7,1.2,2,2,4.2,2c3.8,0,5.4-3.3,5.4-6.8c0-3.4-1.8-6.3-5.4-6.3
		c-2.2,0-3.6,1.1-4.2,2.1h0v-1.8h-2.2V315L307.4,315z M316.8,303.5c0.1,2-1,4.7-3.5,4.7c-2.6,0-3.7-2.6-3.7-4.7
		c0-2.3,1.2-4.7,3.7-4.7C315.9,298.9,316.8,301.3,316.8,303.5"/>
	<path id="XMLID_55_" class="st0" d="M321.5,303.6c0,3.6,2.6,6.5,6.4,6.5c3.7,0,6.3-3,6.3-6.5c0-3.8-2.6-6.5-6.3-6.5
		C324,297,321.5,299.8,321.5,303.6 M323.9,303.6c0-2.4,1.4-4.7,3.9-4.7c2.4,0,3.9,2.3,3.9,4.7c0,2.2-1.2,4.7-3.9,4.7
		C325.1,308.2,323.9,305.8,323.9,303.6"/>
	<path id="XMLID_56_" class="st0" d="M337.3,297.3h2.2v1.9h0c0.6-1.3,1.9-2.2,3.3-2.2c0.7,0,1,0.1,1.5,0.2v2.1
		c-0.4-0.2-0.9-0.2-1.3-0.2c-2.1,0-3.4,2-3.4,5.1v5.7h-2.3V297.3L337.3,297.3z"/>
	<path id="XMLID_59_" class="st0" d="M356.4,307c-0.6,0.5-2.3,1.3-3.8,1.3c-2.2,0-4.1-1.7-4.1-4.2h8.9c0-4-1.3-7.1-5.5-7.1
		c-3.5,0-5.9,2.6-5.9,6.3c0,4.1,2,6.8,6.5,6.8c2.1,0,3.1-0.5,3.9-0.8V307z M348.4,302.4c0.2-1.6,1.1-3.5,3.4-3.5
		c2,0,3.1,1.6,3.1,3.5H348.4z"/>
	<path id="XMLID_60_" class="st0" d="M372.7,229.6c4.7,4.3,13.9,8.3,25.2,8.5c9.9,0.2,17.9-2.8,18.4-11
		c1.1-17.8-44.5-10.7-42.7-40.7c0.9-15,15.8-20,31.9-19.7c8.7,0.1,17.4,2.2,22.1,4.6l0,10.7c-5.8-4-13.9-6.5-20.6-6.6
		c-10.2-0.2-18.3,1.7-18.4,9.1c-0.3,15.5,45.7,11.8,43.9,41.6c-1,16.7-17.3,21.9-34.3,21.6c-9.8-0.1-19.4-2.1-25.4-5.2L372.7,229.6z
		"/>
	<path id="XMLID_61_" class="st0" d="M329.6,247.7c-21.2,0-33.4-9.5-33.4-29.1V169h15.9l0,49.6c0,12.2,5.8,19.5,17.5,19.5
		c11.6,0,17.5-7.4,17.5-19.5l0-49.6h15.9v49.6C362.9,238.2,350.7,247.7,329.6,247.7"/>
	<path id="XMLID_62_" class="st0" d="M270.4,169v55.9l-36.4-52c-1.7-2.4-4.6-4-7.7-4h-12v76.2h10.6v-56l36.3,51.8
		c1.7,2.5,4.6,4.1,7.9,4.1h12V169H270.4z"/>
	<path id="XMLID_63_" class="st0" d="M196,247.9V169h-1.6h-127v79c0,0.1,0,0.3,0,0.6c0,3.7,0.8,23.5,16.7,48.4
		c17.3,27.3,45.9,35.8,47.1,36.1l0.4,0.1l0.4-0.1c1.2-0.3,29.9-8.8,47.2-36.1C196.7,269.8,196.1,248.8,196,247.9"/>
	<path id="XMLID_64_" class="st1" d="M127.7,178.5c-0.2,0-5.4-1-11.7-1c-5,0-9.4,1.5-11.4,2.2c-2-0.8-6.4-2.2-11.4-2.2
		c-6.2,0-11.5,0.9-11.7,1l-0.7,0.1v5.4v23.3v4.6l1-0.2c0,0,4.4-0.9,10.7-0.9c4.8,0,9.8,1.3,11.7,2l0.3,0.1l0.3-0.1
		c2-0.7,6.9-2,11.7-2c6.4,0,10.7,0.9,10.7,0.9l1,0.2v-4.6V184v-5.4L127.7,178.5z"/>
	<path id="XMLID_65_" class="st2" d="M103.8,181.3c-2-0.7-6.1-2-10.5-2c-4.8,0-9.1,0.6-10.7,0.8v25.2c1.7-0.3,5.3-0.8,10.1-0.8
		c4.3,0,8.6,1,11.1,1.8L103.8,181.3L103.8,181.3z"/>
	<path id="XMLID_66_" class="st2" d="M116,179.3c-4.5,0-8.7,1.3-10.6,2.1v24.9c2.5-0.8,6.9-1.8,11.2-1.8c4.8,0,8.4,0.5,10.1,0.8
		v-25.2C125.1,179.9,120.9,179.3,116,179.3"/>
	<path id="XMLID_67_" class="st0" d="M87.3,183.5c-0.6,0.2-1,0.7-0.8,1.3c0.2,0.5,0.8,0.8,1.5,0.7c0,0,3.2-0.6,5.9-0.6
		c2.5,0,5.2,1.1,5.3,1.1c0.6,0.2,1.3-0.1,1.5-0.6c0.2-0.5-0.1-1.1-0.7-1.3c-0.1,0-3.2-1.3-6.1-1.3C90.9,182.8,87.5,183.5,87.3,183.5
		"/>
	<path id="XMLID_68_" class="st0" d="M87.3,188.5c-0.6,0.2-1,0.7-0.8,1.3c0.2,0.5,0.8,0.8,1.5,0.7c0,0,3.2-0.6,5.9-0.6
		c2.5,0,5.2,1.1,5.3,1.1c0.6,0.2,1.3-0.1,1.5-0.6c0.2-0.5-0.1-1.1-0.7-1.3c-0.1,0-3.2-1.3-6.1-1.3C90.9,187.8,87.5,188.5,87.3,188.5
		"/>
	<path id="XMLID_69_" class="st0" d="M87.3,193.5c-0.6,0.2-1,0.7-0.8,1.3c0.2,0.5,0.8,0.8,1.5,0.7c0,0,3.2-0.6,5.9-0.6
		c2.5,0,5.2,1.1,5.3,1.1c0.6,0.2,1.3-0.1,1.5-0.6c0.2-0.5-0.1-1.1-0.7-1.3c-0.1,0-3.2-1.3-6.1-1.3C90.9,192.8,87.5,193.5,87.3,193.5
		"/>
	<path id="XMLID_70_" class="st0" d="M87.3,198.5c-0.6,0.2-1,0.7-0.8,1.3c0.2,0.5,0.8,0.8,1.5,0.7c0,0,3.2-0.6,5.9-0.6
		c2.5,0,5.2,1.1,5.3,1.1c0.6,0.2,1.3-0.1,1.5-0.6c0.2-0.5-0.1-1.1-0.7-1.3c-0.1,0-3.2-1.3-6.1-1.3C90.9,197.8,87.5,198.5,87.3,198.5
		"/>
	<path id="XMLID_71_" class="st0" d="M122.1,183.5c0.6,0.2,1,0.7,0.8,1.3c-0.2,0.5-0.8,0.8-1.5,0.7c0,0-3.2-0.6-5.9-0.6
		c-2.5,0-5.2,1.1-5.3,1.1c-0.6,0.2-1.3-0.1-1.5-0.6c-0.2-0.5,0.1-1.1,0.7-1.3c0.1,0,3.2-1.3,6.1-1.3
		C118.5,182.8,121.9,183.5,122.1,183.5"/>
	<path id="XMLID_72_" class="st0" d="M122.1,188.5c0.6,0.2,1,0.7,0.8,1.3c-0.2,0.5-0.8,0.8-1.5,0.7c0,0-3.2-0.6-5.9-0.6
		c-2.5,0-5.2,1.1-5.3,1.1c-0.6,0.2-1.3-0.1-1.5-0.6c-0.2-0.5,0.1-1.1,0.7-1.3c0.1,0,3.2-1.3,6.1-1.3
		C118.5,187.8,121.9,188.5,122.1,188.5"/>
	<path id="XMLID_73_" class="st0" d="M122.1,193.5c0.6,0.2,1,0.7,0.8,1.3c-0.2,0.5-0.8,0.8-1.5,0.7c0,0-3.2-0.6-5.9-0.6
		c-2.5,0-5.2,1.1-5.3,1.1c-0.6,0.2-1.3-0.1-1.5-0.6c-0.2-0.5,0.1-1.1,0.7-1.3c0.1,0,3.2-1.3,6.1-1.3
		C118.5,192.8,121.9,193.5,122.1,193.5"/>
	<path id="XMLID_74_" class="st0" d="M122.1,198.5c0.6,0.2,1,0.7,0.8,1.3c-0.2,0.5-0.8,0.8-1.5,0.7c0,0-3.2-0.6-5.9-0.6
		c-2.5,0-5.2,1.1-5.3,1.1c-0.6,0.2-1.3-0.1-1.5-0.6c-0.2-0.5,0.1-1.1,0.7-1.3c0.1,0,3.2-1.3,6.1-1.3
		C118.5,197.8,121.9,198.5,122.1,198.5"/>
	<path id="XMLID_75_" class="st2" d="M176.8,295.2c-15.6,24.6-41.4,33.5-45,34.7c-3.6-1.2-29.3-10.1-44.9-34.7
		c-15.6-24.6-16.2-44.3-16.2-47c0-0.2,0-0.3,0-0.3V220H193v27.9c0,0,0,0.1,0,0.3C193,250.9,192.4,270.6,176.8,295.2"/>
	<path id="XMLID_76_" class="st0" d="M187.2,242.6c-0.6-2.3-1.8-3.3-3.3-4.1c-4.3-2.3-9.8-0.7-14.7,1c-3.7,1.3-4.8,1.6-9,2.3
		c-3.2,0.5-13.7,1.9-17-0.9c-0.5-0.4-1-1.3-1-1.8c-0.1-1.1,0.4-2.5,0.8-3c0.8-0.9,2.8-1.4,6-1.4l8.2,0.1c0.5,0.7,1.8,1.7,5.1,2.4
		c5.3,1.1,11.1-0.7,11.1-0.7s-1-0.2-1.8-0.8c-0.7-0.5-0.6-1.3-0.6-1.3s1.2,0.6,2.9,0.5c2.1-0.1,3.1-1.1,5.1-1.6
		c2-0.5,4.2-0.1,4.2-0.1s-2-2.1-4-2.5c-2-0.4-4.4,0.1-4.4,0.1s0.6-0.3,1.3-0.9c0.6-0.5,0.7-1.4,0.7-1.4s-2.4,0.9-4.7,0.8
		c-2.4-0.1-2.2-1-6.9-1.1c-3.5-0.1-6.4,2-7.6,3c-3.8-0.2-6.7-0.4-8.5-0.4c-4.8,0-7.5,0.8-9.2,2.6c-1.4,1.5-2,3.5-1.8,5.9
		c0.2,1.9,1,3.4,2.5,4.6c4.5,3.7,16.4,2.6,20.7,1.8c4.7-0.8,6.2-1.2,8.9-2.1l0.2-0.1c2.1-0.7,8.6-2.9,11.3-1.4
		c0.6,0.3,0.9,0.8,1.2,1.7c0.1,0.4,0.2,0.7,0.2,1c0,0.6-0.2,1-0.5,1.5c-2.5,3-11.8,3.5-15.8,3.8c-0.4-0.1-3.1-0.7-6.7-0.7
		c-2.4,0-4.4,0.1-6.5,0.3c-3.9,0.3-7.9,0.6-14.5-0.2c-3.1-0.4-6-0.9-8.2-1.6c-0.1-0.8-0.5-1.6-1.3-2.5c1.6,0.5,3.7-1.2,4.3-2.1
		c0-0.1-2.8-0.8-3-2.7c0-0.1,2,0.2,2.8-2.6c-2-1.1-1.4-1.5-2.3-2.8c-0.8-1.2-2.1-1.8-3.6-1.8c0.6-0.1,0.7,0,1.3-0.3
		c0.9-0.4,1.5-1.6,2.3-1.6c-1.7-2.7-6.4-3.1-8.4-2.5c0.5-0.6,1.3-1.3,1.3-2.2c-2.6,0.7-5.1-0.6-7.7-0.1c-2.2,0.4-3.4,1.3-4.1,3.3h0
		H112h0c-0.7-2.1-1.9-2.9-4.1-3.3c-2.6-0.5-5.2,0.9-7.7,0.1c0,0.9,0.8,1.5,1.3,2.2c-1.9-0.6-6.6-0.2-8.4,2.5c0.9,0,1.5,1.1,2.3,1.6
		c0.8,0.4,0.9,0.3,1.3,0.3c-1.5,0-2.7,0.6-3.6,1.8c-1,1.4-0.3,1.8-2.3,2.8c0.8,2.8,2.8,2.5,2.8,2.6c-0.2,1.8-3,2.6-3,2.7
		c0.6,0.9,2.7,2.6,4.3,2.1c-1.3,1.5-1.5,2.6-1.2,4.1c-2-1.5-4-3.3-5.1-4.7c-0.3-0.4-1.1-3-1.6-4.7l-0.4-1.4l-0.2-0.8
		c-0.6-2.3-1.3-4.3-2.3-4.6c-0.6-0.1-1.1-0.2-1.6-0.1c-0.4-0.6-0.9-1.2-1.5-1.4c-1.2-0.4-1.8-0.1-1.8-0.1s1,0.7,1.3,1.5
		c0.1,0.2,0.1,0.4,0.2,0.5c-0.2,0.1-0.4,0.3-0.6,0.4l-0.1,0.1c-0.1,0.1-0.3,0.2-0.5,0.4c-0.1,0-0.2,0-0.3-0.1
		c-1.3-0.2-1.8,0.2-1.8,0.2s0.7,0.3,1.2,0.8c-0.4,0.6-0.8,1.4-0.8,2.4c0,0.1,0,0.2,0,0.3c-1.2,0.1-1.7,0.5-1.7,0.5s1.2,0.3,1.8,0.9
		l0.2,0.2L78,240c-0.2,0.4-0.4,0.8-0.4,1.3c0,1.1,0.6,2.2,1.4,3c0,0,2.2,1.8,2.4,2c0.9,1.9,1.8,3.6,2.5,4.4c0.2,0.2,1.5,2.6,3,5
		c0.2,0.3,0.4,0.7,0.6,1c0.3,1.5,0.7,3.4,0.8,4.8c0.3,2.6,0,5.6,0,5.6s1.7-0.1,2.5-1.2c0,0,0.6,1.8,0.5,3.9
		c-0.1,1.5-0.5,3.7-0.5,3.7s1.7-0.9,2.9-2c0.6-0.6,1.3-1.5,1.7-2.1c1.4,0.9,5.3-0.5,7.3-1.3c0.4,0.8,0.9,1.6,1.6,2.6
		c0.3-1.2,1.6-1.8,2.1-2.7c0.2,0,0.4,0,0.5,0c0.1,1.3-0.3,2.5,0.9,4.9c0.3,0.7,2,3.2,3.3,4.5c-0.5,2.2-1.4,6.2-2.3,9.5
		c-1.1,3.7-1.9,5.6-2.4,6.5c-1.4,0.1-4,0.2-4.8,0.1c-2-0.1-3.4,0.3-4.3,1.2l-0.2,0.2c-0.7,0.1-1.5,0.3-1.9,0.8
		c-0.9,1-0.9,1.6-0.9,1.6s1.1-0.6,1.9-0.6l0.2,0v0.2c0,0.2,0.1,0.5,0.3,0.9c-0.1,0.1-0.3,0.2-0.3,0.3c-0.8,1-0.7,1.7-0.7,1.7
		s1-0.7,1.8-0.7c0.3,0.4,0.5,0.8,0.8,1.2l-0.1,0.1c-0.7,1.1-0.6,1.7-0.6,1.7s0.8-0.6,1.5-0.8c0.3,0.3,0.5,0.6,0.7,0.8
		c1.2,1,4.1,0.4,7.8-0.6l2.3-0.6c1.6-0.3,2.6-1,3.4-2.2c0.2-0.3,0.3-0.8,0.6-1.5l0.2-0.6c0.5-1.4,0.9-2.4,1.9-4c0,0,1-1.7,2.4-3.9
		c1.2-1,2.6-2.2,3.7-2.9c1.6-1.1,4.8-2.7,4.8-2.7s-0.9-1.4-2.1-1.6c0,0,1.6-1.7,3-2.3c1.6-0.7,3.6-1,3.6-1s-0.7-1.5-1.9-2.2
		c0.5-0.2,0.9-0.4,1.4-0.8c2.7-1.8,4.7-1.7,6.6-1.2c0.1-1.2-0.2-2-1.3-2.7c0.9-0.4,1.8-0.7,2.8-0.9c0.6,1.1,1.3,2.2,1.6,2.7
		c1.4,2,3.5,4.7,5.2,6.4c0,0,0.1,0.1,0.1,0.2c0,0.7-0.9,2.7-1.4,3.8l-0.4,1c0,0-1.7,4-2.2,5.2c-1,0.1-3.9,0.2-4.9,0.2
		c-1.9-0.1-3.3,0.3-4.2,1.2c-0.1,0.1-0.2,0.2-0.3,0.3c-0.7,0.1-1.6,0.4-2,0.9c-0.8,1-0.8,1.7-0.8,1.7s1-0.7,1.8-0.7
		c0.1,0,0.2,0,0.4,0c0,0.2,0.1,0.5,0.3,0.9c-0.2,0.1-0.4,0.3-0.5,0.5c-0.7,1.1-0.6,1.7-0.6,1.7s1-0.8,1.8-0.9l0.1,0
		c0.2,0.3,0.4,0.6,0.6,0.9c-0.1,0.1-0.1,0.2-0.2,0.2c-0.7,1.1-0.6,1.7-0.6,1.7s0.9-0.7,1.7-0.9c0.2,0.3,0.5,0.5,0.7,0.7
		c1.1,1,3.5,0.4,6.8-0.5l2.3-0.6c1.6-0.3,2.6-0.9,3.3-2.1l0.6-1.3c0.3-0.7,0.6-1.4,0.9-1.8c0.4-0.6,0.8-1.3,1.2-2.1
		c0.5-0.5,1.1-0.9,1.4-1.2c1-0.8,3.7-2.3,3.7-2.3s-0.5-1.2-1.6-1.3c0,0,1.1-1.2,2.3-1.9c0.9-0.5,2.7-0.8,2.7-0.8s-1.2-1.1-2.2-1.5
		c-0.4-0.2-0.9-0.3-1.3-0.4c-0.1-0.5-0.3-1.1-0.9-1.9c-0.9-1.4,0.4-4.5,1.4-6.3c0.5,0.7,1.4,1.9,2.9,3.5c0,0,4.7,5.2,5.8,6.3
		c-0.2,0.8-0.9,3.4-1.9,6.3c-0.8,2.1-1.8,4.2-2.4,5.3c-1.1,0.1-3.7,0.2-4.7,0.2c-1.9-0.1-3.3,0.3-4.2,1.2c-0.1,0.1-0.3,0.3-0.4,0.5
		c-0.6,0.2-1.3,0.4-1.7,0.9c-0.8,1-0.7,1.7-0.7,1.7s0.8-0.7,1.8-0.8l0.1,0c0,0.2,0.2,0.5,0.4,0.9c-0.2,0.1-0.4,0.3-0.5,0.5
		c-0.7,1.1-0.6,1.7-0.6,1.7s1-0.8,1.8-0.9l0.1,0c0.3,0.4,0.5,0.8,0.8,1.1l0,0c-0.7,1.1-0.6,1.7-0.6,1.7s0.7-0.6,1.4-0.8
		c0.2,0.2,0.4,0.4,0.6,0.6c1.1,1,3.6,0.4,6.8-0.5l2.3-0.6c1.6-0.3,2.6-0.9,3.3-2.1c0.3-0.5,1.8-3.9,2.2-4.9c0.7-1.7,1.5-3.5,2.3-5.2
		c0.4-0.3,0.8-0.6,1-0.8c1.3-0.9,4.1-2.5,4.1-2.5s-0.6-1.2-1.6-1.3c0,0,1.1-1.1,2.2-1.8c1-0.7,2.9-1,2.9-1s-1.3-1-2.3-1.4
		c-0.6-0.2-1.3-0.4-1.9-0.5c-0.2-0.8-0.6-1.1-1.2-1.4c-0.5-0.3-1.3-0.6-2.4-1.9c-1.4-1.7-1.6-4.9-1.6-8.1c0-0.7,0-1.4,0-2.1l0-3.1
		c-0.1-3.6-0.6-6.1-1.1-7.8c4.7-0.4,13.3-1.4,16.8-5.7c1.1-1.3,1.6-2.8,1.6-4.5C187.6,244.2,187.4,243.4,187.2,242.6"/>
	<path id="XMLID_77_" class="st3" d="M153.5,281.8c0.6-0.6,0.9-0.9,0.9-1.3c0-0.4-0.2-0.8-0.7-1.5c-0.4-0.5-0.5-1.2-0.5-1.9
		c0-2.3,1.5-5.1,2.1-6.1c-0.2-0.2-0.4-0.5-0.7-0.9c-0.2-0.1-0.3-0.2-0.4-0.3c-0.4-0.3-1.4-1.1-2-2c-0.1-0.1-0.2-0.3-0.3-0.4
		c-1.3,0-4.3-0.1-7.5,0.8c1,0.6,1.2,1.3,1.2,2.2c-2.1-0.4-3.8-0.5-5.4-0.2c0.5,0.9,1.1,1.9,1.4,2.2c1.4,1.9,3.4,4.6,5.1,6.2
		c0.3,0.3,0.4,0.6,0.4,1c0,1-0.6,2.5-1.4,4.3l-0.4,1l-2.5,5.8l-0.4,0c-0.2,0-4.1,0.3-5.4,0.2c-1.4-0.1-2.5,0.2-3.1,0.7
		c0.1,0.3,0.1,0.6,0,0.9c-0.1,0.4-0.4,0.7-0.6,0.8c0,0.1,0.1,0.1,0.1,0.2c0.8-0.3,1.5-0.3,1.5-0.3s0.4,0.6,0.3,1.3
		c-0.1,0.5-0.4,0.8-0.6,1c0.1,0.1,0.1,0.1,0.2,0.2c0.9-0.4,1.8-0.4,1.8-0.4s0.4,0.7,0.3,1.4c-0.1,0.4-0.3,0.6-0.5,0.8
		c1.1,0.3,3.8-0.4,5.4-0.9l2.4-0.6c1.3-0.2,2-0.7,2.5-1.6l0.5-1.2c0.3-0.7,0.7-1.5,1-2c0.8-1.2,1.6-2.9,2.4-4.6
		C151.9,284.3,152.9,282.4,153.5,281.8"/>
	<polyline id="XMLID_78_" class="st3" points="106.8,266.7 106.8,266.8 106.8,266.8 106.8,266.7 	"/>
	<path id="XMLID_79_" class="st1" d="M101.7,260c-0.8,1.1-2.1,1.7-3.9,1.9c0.3-1.8,0-3-0.6-4.4c-0.6-1.2-2.1-3.7-2.6-5.1
		c-0.1-0.4-0.3-0.8-0.4-1.1c-2.5-1.8-5.2-4-6.6-5.8c-0.3-0.4-0.8-2-1.8-5.1l-0.4-1.4l-0.2-0.8c-0.6-2.3-1.1-3.6-1.5-3.7
		c-0.2-0.1-0.5-0.1-0.7-0.1v0c0,0-0.1,0.7-1.3,0.7c-0.3,0-0.5-0.1-0.7-0.2c-0.1,0.1-0.2,0.1-0.3,0.2l-0.1,0.1l-0.2,0.1
		c0.7,0.6,1.2,1.5,1.2,1.5s-0.3,0.7-1.2,0.9c-0.7,0.1-1.2-0.4-1.2-0.4s0-0.2-0.1-0.6c-0.3,0.5-0.4,1.2-0.3,1.9
		c0.9,0.5,1.7,1.3,1.7,1.3s0,0.7-1,1.2c-0.4,0.2-0.7,0.1-1,0c-0.1,0.7,0.3,1.7,1,2.4l2.6,2.1l0.1,0.1c0.8,1.8,1.8,3.6,2.3,4.2
		c0.2,0.2,1,1.5,3.1,5.2c2.8,4.8,7.1,12.2,8.2,13.4c0.4,0.4,3.3-0.3,6.2-1.4C101.2,264.1,102.1,262.4,101.7,260"/>
	<path id="XMLID_80_" class="st1" d="M186.1,242.9c-0.5-1.9-1.4-2.7-2.8-3.4c-3.8-2-9.1-0.5-13.8,1.1c-4,1.3-5.1,1.7-9.2,2.3
		c-4.2,0.6-14.4,1.8-18-1.2c-0.7-0.6-1.4-1.7-1.4-2.6c-0.1-1.4,0.5-3.2,1.1-3.8c1.1-1.2,3.2-1.8,6.9-1.8c0,0,5.5,0.1,8.5,0.1
		l0.6-0.6l-0.6-0.7c-3.8-0.3-6.8-0.4-8.5-0.4c-4.4,0-6.9,0.7-8.4,2.2c-1.2,1.3-1.7,3-1.5,5c0.1,1.5,0.8,2.8,2,3.8
		c3.8,3.1,14.9,2.4,19.7,1.6c4.7-0.8,6.1-1.2,8.7-2.1l0.2-0.1c2.5-0.8,9.1-3,12.2-1.4c0.8,0.5,1.4,1.2,1.7,2.4
		c0.4,1.4,0.2,2.6-0.6,3.5c-2.8,3.4-11.8,3.9-16.7,4.2l-0.1,0l-0.1,0c0,0-2.9-0.7-6.5-0.7c-2.3,0-4.3,0.1-6.4,0.3
		c-3.9,0.3-8,0.6-14.8-0.2c-3-0.3-5.8-0.9-8.1-1.5c-0.1,0.9-0.5,1.9-1,3.3c-0.5,1.4-2,3.8-2.6,5.1c-0.7,1.4-1,2.6-0.6,4.4
		c-1.8-0.2-3.2-0.8-3.9-1.9c-0.5,3.3,1.4,5.3-2.6,10.7c-0.4-1.6-2.6-2.1-2.4-4c-0.7,1.9,0.4,3-1.2,6.2c-0.4,0.8-2.6,4.1-3.8,5
		c-0.5,2.3-1.3,6.1-2.2,9.3c-1.2,4.3-2.2,6.3-2.7,7l-0.2,0.3l-0.3,0c-1.3,0.1-4.3,0.2-5.2,0.1c-1.3-0.1-2.4,0.1-3,0.6
		c0.1,0.3,0.1,0.8-0.1,1.1c-0.2,0.4-0.6,0.6-0.7,0.7c0,0.1,0.1,0.1,0.1,0.2c0.9-0.2,1.7-0.3,1.7-0.3s0.4,0.7,0,1.6
		c-0.1,0.4-0.4,0.5-0.5,0.6c0.1,0.1,0.2,0.2,0.3,0.4c0.9-0.4,2-0.5,2-0.5s0.4,0.5,0.1,1.6c-0.1,0.3-0.3,0.5-0.4,0.6
		c1.2,0.4,4.6-0.5,6.4-1l2.4-0.6c1.3-0.2,2-0.7,2.6-1.6c0.1-0.2,0.3-0.8,0.5-1.3l0.2-0.7c0.5-1.5,1-2.5,2-4.2
		c2.4-3.9,9.7-15.7,10-16.7l0-0.2c0-0.6-0.3-2-0.6-2.9l-0.2-0.6c0,0,23.4-6.8,24.8-7.2c-0.5-0.8-1.4-2.5-1.4-2.5l0.9-0.8
		c0.1,0.1,1.9,1.4,2.9,2.4c0.9,0.9,1.7,2.2,2.6,3.6l0.5,0.7c1,1.6,2,2.8,2,2.8l0,0l0,0c0,0,0.8,1.4,3.2,4.1l6.2,6.8l-0.1,0.3
		c0,0-0.7,3.2-2,6.7c-0.8,2.3-2.1,4.8-2.6,5.7l-0.2,0.3l-0.3,0c-1.2,0.1-4.1,0.2-5.1,0.2c-1.3-0.1-2.3,0.1-3,0.6
		c0.1,0.3,0.2,0.8,0,1.2c-0.2,0.4-0.5,0.6-0.7,0.8l0.1,0.2c0.8-0.3,1.5-0.3,1.5-0.3s0.4,0.6,0.3,1.4c-0.1,0.5-0.4,0.8-0.6,0.9
		c0.1,0.1,0.2,0.2,0.2,0.3c0.9-0.4,2.1-0.6,2.1-0.6s0.4,0.5,0.3,1.4c-0.1,0.4-0.3,0.6-0.5,0.8c1.2,0.1,3.6-0.6,5.2-1l2.4-0.6
		c1.3-0.2,2-0.7,2.5-1.6c0.2-0.4,1.6-3.5,2.1-4.7c1.5-3.6,3.6-8.2,5-10.6l0.8-1.2c0.5-0.7,0.9-1.3,0.8-1.7c0-0.6-0.1-0.6-0.6-0.8
		c-0.6-0.3-1.5-0.7-2.7-2.2c-2-2.4-2-6.9-1.9-10.9l0-3c-0.1-4-0.7-6.6-1.3-8.1l-0.2-0.7l0.7-0.1c4.3-0.4,13.3-1.2,16.7-5.3
		C186.3,247,186.7,245.1,186.1,242.9"/>
	<path id="XMLID_81_" class="st2" d="M162.7,196.2c0.5,0.7,0.9,1.4,1.3,2.2c-0.4,0.1-0.8,0.1-1.3,0.1c-0.4,0-0.8,0-1.3-0.1
		C161.8,197.6,162.2,196.9,162.7,196.2"/>
	<path id="XMLID_89_" class="st1" d="M157.5,196c-0.9-0.7-1.7-1.6-2.3-2.6l0,0c1.2,0,2.3,0.2,3.4,0.7
		C158.2,194.6,157.8,195.3,157.5,196 M150.1,195.1c1.3,2.7,3.4,5,6.1,6.4c0,0.2,0,0.3,0,0.5c0,2.9,0.9,5.7,2.5,7.9
		c-1.1,0.5-2.2,0.7-3.4,0.7c-4.7,0-8.6-3.9-8.6-8.6C146.7,199.1,148,196.7,150.1,195.1 M170.2,193.3L170.2,193.3
		c-0.5,1-1.3,1.9-2.2,2.6c-0.3-0.7-0.7-1.3-1.1-1.9C167.9,193.6,169,193.3,170.2,193.3 M155.3,187.9c-0.4,0-0.7,0-1.1,0.1
		c0.5-4.3,4.1-7.5,8.5-7.5c4.4,0,8,3.3,8.5,7.5l-1.1-0.1c-2.7,0-5.2,0.7-7.4,2.1C160.6,188.7,158,187.9,155.3,187.9 M169.2,201.5
		c2.7-1.4,4.8-3.7,6.1-6.4c2.2,1.6,3.4,4.1,3.4,6.9c0,4.7-3.9,8.6-8.6,8.6c-1.2,0-2.3-0.2-3.4-0.7c1.6-2.3,2.5-5,2.5-7.9
		L169.2,201.5z M161.6,203l1.1,0.1c0.4,0,0.7,0,1.1-0.1c-0.1,1.1-0.5,2.2-1.1,3.2C162.2,205.3,161.8,204.2,161.6,203 M176.7,189.6
		c0-0.1,0-0.3,0-0.4c0-7.7-6.3-14-14-14c-7.7,0-14,6.3-14,14l0,0.5c-4.4,2.4-7.5,7-7.5,12.4c0,7.7,6.3,14,14,14
		c2.7,0,5.2-0.8,7.5-2.2c2.2,1.4,4.7,2.2,7.4,2.2c7.7,0,14-6.3,14-14C184.2,196.8,181.2,192,176.7,189.6"/>
	<path id="XMLID_90_" class="st2" d="M165.4,202.9c0.8-0.2,1.5-0.4,2.3-0.7c0,2.5-0.8,4.9-2.3,6.9c-0.6-0.4-1.2-0.9-1.7-1.5
		C164.6,206.2,165.2,204.6,165.4,202.9"/>
	<path id="XMLID_91_" class="st2" d="M162.7,176.8c6.8,0,12.4,5.6,12.4,12.4c0,6.9-5.6,12.4-12.4,12.4l-1.1-0.1
		c0-0.8,0.2-1.5,0.4-2.2l0.7,0c5.6,0,10.2-4.6,10.2-10.2c0-5.6-4.6-10.2-10.2-10.2c-5.3,0-9.7,4-10.1,9.3c-0.8,0.2-1.6,0.4-2.3,0.7
		C150.4,182.2,155.9,176.8,162.7,176.8"/>
	<path id="XMLID_92_" class="st2" d="M170.2,189.6l1.1,0.1c0,0.8-0.2,1.5-0.4,2.2l-0.7,0c-1.5,0-3,0.4-4.3,1
		c-0.5-0.6-1.1-1.2-1.7-1.7C166,190.1,168,189.6,170.2,189.6"/>
	<path id="XMLID_93_" class="st2" d="M155.3,214.4c-6.9,0-12.4-5.6-12.4-12.4c0-6.8,5.6-12.4,12.4-12.4c4.9,0,9.3,2.8,11.3,7.3
		c-0.7,0.3-1.4,0.6-2.1,0.7c-1.7-3.5-5.2-5.8-9.2-5.8c-5.6,0-10.2,4.6-10.2,10.2c0,5.6,4.6,10.2,10.2,10.2c1.5,0,3-0.4,4.4-1
		c0.5,0.6,1.1,1.2,1.7,1.7C159.5,213.9,157.4,214.4,155.3,214.4"/>
	<path id="XMLID_94_" class="st2" d="M153.5,193.6c0.8,1.6,1.9,2.9,3.4,4c-0.3,0.8-0.4,1.5-0.6,2.3c-2.2-1.3-3.9-3.2-4.9-5.5
		C152.1,194,152.8,193.7,153.5,193.6"/>
	<path id="XMLID_95_" class="st2" d="M170.2,214.4c-6.9,0-12.4-5.6-12.4-12.4c0-2.6,0.8-5.1,2.3-7.2c0.6,0.4,1.2,0.9,1.7,1.5
		c-1.1,1.7-1.7,3.6-1.7,5.7c0,5.6,4.6,10.2,10.2,10.2c5.6,0,10.2-4.6,10.2-10.2c0-3.4-1.6-6.4-4.4-8.3c0.3-0.7,0.4-1.5,0.6-2.3
		c3.7,2.2,6.1,6.3,6.1,10.7C182.6,208.9,177,214.4,170.2,214.4"/>
	<path id="XMLID_96_" class="st1" d="M121.3,239c0.7-0.5,2.5-2,1.6-3.7c-1-1.9-3.3-1.1-4-0.8c-0.1-0.1-5.2-2.3-5.2-2.3l-2,2.3
		l-2-2.3c-0.1,0-5.1,2.2-5.2,2.3c-0.7-0.3-3-1-4,0.8c-0.9,1.8,0.8,3.2,1.6,3.7l0,0l-1.6,2.9l4.8,5.7l0,3.7c0,0,1.9,1.3,2,1.3
		c0.3,1.4,0.4,2.2,0.7,2.9c0.1,0.2,1.9,0.8,3.7,0.8h0.1c1.8,0,3.6-0.6,3.7-0.8c0.3-0.8,0.4-1.5,0.7-2.9c0.1,0,2-1.3,2-1.3l0-3.7
		l4.8-5.7L121.3,239L121.3,239"/>
	<polygon id="XMLID_97_" class="st0" points="109.3,239.3 109.1,241.7 104.9,239.3 	"/>
	<path id="XMLID_98_" class="st0" d="M114.8,241.8c0,0.2,0.7,5.9,0.7,5.9s-3.1,1.7-3.3,1.8c0,0.2,0,2,0,2.1c0.1,0.1,0.7,0.5,1.3,0.8
		c1,0.4,2.1,0.2,2.1,0.2l0.3-0.1l-0.2,0.8l-0.1,0c0,0-1.2,0.2-2.2-0.1c-0.8-0.3-1.3-0.6-1.4-0.7h-0.5c-0.1,0.1-0.6,0.4-1.4,0.7
		c-1,0.3-2.1,0.1-2.2,0.1l-0.1,0l-0.2-0.8l0.3,0.1c0,0,1.1,0.3,2.1-0.2c0.6-0.2,1.1-0.7,1.3-0.8c0-0.1,0-2,0-2.1
		c-0.1-0.1-3.2-2.3-3.2-2.3s5.5,0,5.8,0v-7.7l4.6,0l0.6,0C118.9,239.4,114.9,241.7,114.8,241.8"/>
</g>
</svg>
