<svg version="1.1" viewBox="0.0 0.0 960.0 540.0" fill="none" stroke="none" stroke-linecap="square" stroke-miterlimit="10" xmlns:xlink="http://www.w3.org/1999/xlink" xmlns="http://www.w3.org/2000/svg"><clipPath id="p.0"><path d="m0 0l960.0 0l0 540.0l-960.0 0l0 -540.0z" clip-rule="nonzero"/></clipPath><g clip-path="url(#p.0)"><path fill="#e9edee" d="m0 0l960.0 0l0 540.0l-960.0 0z" fill-rule="evenodd"/><path fill="#ffffff" d="m0 0l960.0 0l0 51.212597l-960.0 0z" fill-rule="evenodd"/><path fill="#eb5600" d="m126.33025 129.87735l0 -4.8111496l39.145332 0l0 4.8111496z" fill-rule="evenodd"/><path fill="#1a9988" d="m87.18024 129.87735l0 -4.8111496l39.476326 0l0 4.8111496z" fill-rule="evenodd"/><path fill="#000000" fill-opacity="0.0" d="m76.58268 138.83989l807.1496 0l0 174.77165l-807.1496 0z" fill-rule="evenodd"/><path fill="#1a1a1a" d="m89.723305 201.5999l0 -39.765625l14.453125 0q6.5 0 10.859375 2.671875q4.375 2.65625 6.546875 7.171875q2.1875 4.5 2.1875 9.984375q0 6.046875 -2.40625 10.53125q-2.40625 4.484375 -6.8125 6.953125q-4.390625 2.453125 -10.375 2.453125l-14.453125 0zm26.265625 -19.9375q0 -3.859375 -1.40625 -6.796875q-1.390625 -2.953125 -4.03125 -4.59375q-2.625 -1.65625 -6.375 -1.65625l-6.71875 0l0 26.203125l6.71875 0q3.8125 0 6.4375 -1.703125q2.625 -1.703125 4.0 -4.703125q1.375 -3.0 1.375 -6.75zm12.999611 19.9375l0 -29.34375l7.5 0l0 29.34375l-7.5 0zm0 -33.4375l0 -7.4375l7.5 0l0 7.4375l-7.5 0zm25.748749 33.609375q-2.90625 0 -5.34375 -1.140625q-2.4375 -1.15625 -4.203125 -3.21875q-1.765625 -2.078125 -2.71875 -4.765625q-0.9375 -2.6875 -0.9375 -5.71875q0 -3.1875 1.0 -5.9375q1.015625 -2.75 2.828125 -4.84375q1.828125 -2.09375 4.3125 -3.234375q2.484375 -1.15625 5.515625 -1.15625q3.421875 0 5.984375 1.546875q2.578125 1.53125 4.265625 4.109375l0 -5.15625l6.546875 0l0 27.9375q0 4.3749847 -2.109375 7.4843597q-2.09375 3.109375 -5.796875 4.75q-3.6875 1.65625 -8.390625 1.65625q-4.75 0 -8.0625 -1.59375q-3.296875 -1.59375 -5.65625 -4.5l4.09375 -3.984375q1.671875 2.078125 4.21875 3.25q2.546875 1.171875 5.40625 1.171875q2.40625 0 4.390625 -0.875q2.0 -0.859375 3.203125 -2.6875q1.203125 -1.8125 1.203125 -4.6718597l0 -3.6875q-1.453125 2.515625 -4.125 3.890625q-2.65625 1.375 -5.625 1.375zm2.53125 -6.0q1.21875 0 2.34375 -0.390625q1.125 -0.390625 2.078125 -1.0625q0.953125 -0.671875 1.671875 -1.59375q0.734375 -0.921875 1.125 -1.875l0 -7.0q-0.671875 -1.734375 -1.875 -3.015625q-1.203125 -1.296875 -2.6875 -2.0q-1.484375 -0.703125 -3.109375 -0.703125q-1.734375 0 -3.140625 0.734375q-1.390625 0.71875 -2.40625 2.046875q-1.0 1.3125 -1.53125 2.90625q-0.53125 1.59375 -0.53125 3.328125q0 1.796875 0.609375 3.375q0.609375 1.5625 1.703125 2.734375q1.09375 1.171875 2.578125 1.84375q1.484375 0.671875 3.171875 0.671875zm21.503998 5.828125l0 -29.34375l7.5 0l0 29.34375l-7.5 0zm0 -33.4375l0 -7.4375l7.5 0l0 7.4375l-7.5 0zm31.858124 31.921875q-0.953125 0.390625 -2.296875 0.90625q-1.34375 0.5 -2.890625 0.796875q-1.53125 0.3125 -3.09375 0.3125q-2.078125 0 -3.8125 -0.71875q-1.734375 -0.734375 -2.78125 -2.328125q-1.03125 -1.59375 -1.03125 -4.171875l0 -16.859375l-3.859375 0l0 -5.765625l3.859375 0l0 -9.515625l7.5 0l0 9.515625l6.171875 0l0 5.765625l-6.171875 0l0 14.34375q0.0625 1.5 0.84375 2.171875q0.78125 0.671875 1.96875 0.671875q1.171875 0 2.28125 -0.390625q1.125 -0.390625 1.796875 -0.671875l1.515625 5.9375zm1.9102478 -7.171875q0 -2.84375 1.59375 -5.0q1.59375 -2.15625 4.4375 -3.328125q2.859375 -1.1875 6.5625 -1.1875q1.84375 0 3.75 0.28125q1.90625 0.28125 3.3125 0.890625l0 -1.5625q0 -2.796875 -1.65625 -4.3125q-1.65625 -1.515625 -4.90625 -1.515625q-2.40625 0 -4.59375 0.84375q-2.171875 0.84375 -4.59375 2.46875l-2.40625 -4.9375q2.921875 -1.890625 5.96875 -2.84375q3.046875 -0.953125 6.40625 -0.953125q6.28125 0 9.78125 3.140625q3.5 3.125 3.5 8.953125l0 9.34375q0 1.1875 0.421875 1.6875q0.421875 0.5 1.375 0.609375l0 6.109375q-1.015625 0.171875 -1.828125 0.28125q-0.8125 0.109375 -1.375 0.109375q-2.234375 0 -3.390625 -1.0q-1.140625 -1.015625 -1.421875 -2.46875l-0.171875 -1.515625q-1.90625 2.46875 -4.765625 3.8125q-2.84375 1.34375 -5.8125 1.34375q-2.90625 0 -5.234375 -1.203125q-2.328125 -1.203125 -3.640625 -3.296875q-1.3125 -2.109375 -1.3125 -4.75zm18.25 1.515625q0.609375 -0.671875 1.0 -1.34375q0.40625 -0.671875 0.40625 -1.234375l0 -2.96875q-1.34375 -0.546875 -2.921875 -0.859375q-1.5625 -0.3125 -2.96875 -0.3125q-2.90625 0 -4.78125 1.265625q-1.875 1.25 -1.875 3.328125q0 1.125 0.609375 2.140625q0.625 1.0 1.796875 1.625q1.171875 0.609375 2.796875 0.609375q1.6875 0 3.296875 -0.640625q1.625 -0.65625 2.640625 -1.609375zm15.847122 -33.703125l7.5 0l0 31.46875q0 2.015625 0.671875 2.71875q0.671875 0.703125 1.859375 0.703125q0.890625 0 1.84375 -0.21875q0.953125 -0.234375 1.671875 -0.578125l1.015625 5.71875q-1.515625 0.71875 -3.53125 1.109375q-2.015625 0.40625 -3.640625 0.40625q-3.53125 0 -5.46875 -1.875q-1.921875 -1.875 -1.921875 -5.359375l0 -34.09375zm30.461273 40.875l0 -39.765625l17.59375 0q2.734375 0 5.0625 1.125q2.328125 1.125 4.03125 3.03125q1.703125 1.890625 2.625 4.25q0.9375 2.34375 0.9375 4.8125q0 2.515625 -0.875 4.84375q-0.875 2.328125 -2.5 4.0625q-1.609375 1.734375 -3.796875 2.6875l9.0625 14.953125l-8.5 0l-8.1875 -13.328125l-7.71875 0l0 13.328125l-7.734375 0zm7.734375 -20.109375l9.6875 0q1.453125 0 2.5625 -0.859375q1.125 -0.875 1.796875 -2.328125q0.671875 -1.453125 0.671875 -3.25q0 -1.90625 -0.78125 -3.328125q-0.78125 -1.421875 -1.984375 -2.265625q-1.203125 -0.84375 -2.609375 -0.84375l-9.34375 0l0 12.875zm41.325745 20.671875q-3.578125 0 -6.4375 -1.203125q-2.859375 -1.203125 -4.84375 -3.328125q-1.984375 -2.140625 -3.0625 -4.875q-1.0625 -2.75 -1.0625 -5.765625q0 -3.09375 1.0625 -5.828125q1.078125 -2.75 3.0625 -4.875q1.984375 -2.125 4.84375 -3.328125q2.859375 -1.203125 6.4375 -1.203125q3.578125 0 6.40625 1.203125q2.8280945 1.203125 4.8437195 3.328125q2.015625 2.125 3.046875 4.875q1.046875 2.734375 1.046875 5.828125q0 3.015625 -1.046875 5.765625q-1.03125 2.734375 -3.015625 4.875q-1.984375 2.125 -4.84375 3.328125q-2.8593445 1.203125 -6.4374695 1.203125zm-7.671875 -15.171875q0 2.5625 1.0 4.5625q1.015625 1.984375 2.75 3.109375q1.734375 1.109375 3.921875 1.109375q2.125 0 3.859375 -1.140625q1.734375 -1.15625 2.7655945 -3.140625q1.046875 -1.984375 1.046875 -4.5625q0 -2.515625 -1.046875 -4.53125q-1.0312195 -2.015625 -2.7655945 -3.140625q-1.734375 -1.125 -3.859375 -1.125q-2.1875 0 -3.921875 1.15625q-1.734375 1.140625 -2.75 3.140625q-1.0 1.984375 -1.0 4.5625zm41.717224 15.171875q-3.578125 0 -6.4375 -1.203125q-2.859375 -1.203125 -4.875 -3.359375q-2.015625 -2.15625 -3.109375 -4.890625q-1.09375 -2.75 -1.09375 -5.78125q0 -4.140625 1.875 -7.578125q1.875 -3.453125 5.34375 -5.515625q3.484375 -2.078125 8.25 -2.078125q4.75 0 8.15625 2.078125q3.421875 2.0625 5.109375 5.421875l-7.34375 2.234375q-0.9375 -1.625 -2.515625 -2.484375q-1.5625 -0.875 -3.46875 -0.875q-2.125 0 -3.890625 1.09375q-1.765625 1.09375 -2.78125 3.09375q-1.0 1.984375 -1.0 4.609375q0 2.578125 1.03125 4.5625q1.046875 1.984375 2.78125 3.140625q1.734375 1.140625 3.859375 1.140625q1.34375 0 2.546875 -0.4375q1.203125 -0.453125 2.15625 -1.234375q0.953125 -0.78125 1.40625 -1.796875l7.328125 2.234375q-1.0 2.1875 -2.9375 3.921875q-1.9375 1.734375 -4.546875 2.71875q-2.59375 0.984375 -5.84375 0.984375zm37.97464 -0.5625l-8.578125 -12.65625l-3.96875 3.921875l0 8.734375l-7.5 0l0 -40.875l7.5 0l0 24.75l11.8125 -13.15625l7.953125 0l-10.921875 12.421875l11.703125 16.859375l-8.0 0zm25.359863 0l0 -39.765625l7.734375 0l0 39.765625l-7.734375 0zm60.875366 0l-7.5 0l0 -16.46875q0 -3.46875 -1.203125 -5.109375q-1.203125 -1.65625 -3.34375 -1.65625q-2.171875 0 -4.171875 1.703125q-1.984375 1.703125 -2.828125 4.453125l0 17.078125l-7.5 0l0 -16.46875q0 -3.515625 -1.203125 -5.140625q-1.203125 -1.625 -3.328125 -1.625q-2.1875 0 -4.171875 1.6875q-1.984375 1.671875 -2.828125 4.40625l0 17.140625l-7.5 0l0 -29.34375l6.765625 0l0 5.4375q1.6875 -2.859375 4.484375 -4.390625q2.796875 -1.546875 6.4375 -1.546875q3.640625 0 5.6875 1.796875q2.046875 1.78125 2.609375 4.421875q1.78125 -3.03125 4.546875 -4.625q2.78125 -1.59375 6.25 -1.59375q2.75 0 4.453125 0.984375q1.71875 0.96875 2.65625 2.625q0.953125 1.65625 1.3125 3.734375q0.375 2.0625 0.375 4.1875l0 18.3125zm4.5422363 -8.6875q0 -2.84375 1.59375 -5.0q1.59375 -2.15625 4.4375 -3.328125q2.859375 -1.1875 6.5625 -1.1875q1.84375 0 3.75 0.28125q1.90625 0.28125 3.3125 0.890625l0 -1.5625q0 -2.796875 -1.65625 -4.3125q-1.65625 -1.515625 -4.90625 -1.515625q-2.40625 0 -4.59375 0.84375q-2.171875 0.84375 -4.59375 2.46875l-2.40625 -4.9375q2.921875 -1.890625 5.96875 -2.84375q3.046875 -0.953125 6.40625 -0.953125q6.28125 0 9.7812805 3.140625q3.5 3.125 3.5 8.953125l0 9.34375q0 1.1875 0.421875 1.6875q0.421875 0.5 1.375 0.609375l0 6.109375q-1.015625 0.171875 -1.828125 0.28125q-0.8125 0.109375 -1.375 0.109375q-2.234375 0 -3.3906555 -1.0q-1.140625 -1.015625 -1.421875 -2.46875l-0.171875 -1.515625q-1.90625 2.46875 -4.765625 3.8125q-2.84375 1.34375 -5.8125 1.34375q-2.90625 0 -5.234375 -1.203125q-2.328125 -1.203125 -3.640625 -3.296875q-1.3125 -2.109375 -1.3125 -4.75zm18.25 1.515625q0.609375 -0.671875 1.0 -1.34375q0.40625 -0.671875 0.40625 -1.234375l0 -2.96875q-1.34375 -0.546875 -2.921875 -0.859375q-1.5625 -0.3125 -2.96875 -0.3125q-2.90625 0 -4.78125 1.265625q-1.875 1.25 -1.875 3.328125q0 1.125 0.609375 2.140625q0.625 1.0 1.796875 1.625q1.171875 0.609375 2.796875 0.609375q1.6875 0 3.296875 -0.640625q1.625 -0.65625 2.640625 -1.609375zm27.378387 7.34375q-2.90625 0 -5.34375 -1.140625q-2.4375 -1.15625 -4.203125 -3.21875q-1.765625 -2.078125 -2.71875 -4.765625q-0.9375 -2.6875 -0.9375 -5.71875q0 -3.1875 1.0 -5.9375q1.015625 -2.75 2.828125 -4.84375q1.828125 -2.09375 4.3125 -3.234375q2.484375 -1.15625 5.515625 -1.15625q3.421875 0 5.984375 1.546875q2.578125 1.53125 4.265625 4.109375l0 -5.15625l6.546875 0l0 27.9375q0 4.3749847 -2.109375 7.4843597q-2.09375 3.109375 -5.796875 4.75q-3.6875 1.65625 -8.390625 1.65625q-4.75 0 -8.0625 -1.59375q-3.296875 -1.59375 -5.65625 -4.5l4.09375 -3.984375q1.671875 2.078125 4.21875 3.25q2.546875 1.171875 5.40625 1.171875q2.40625 0 4.390625 -0.875q2.0 -0.859375 3.203125 -2.6875q1.203125 -1.8125 1.203125 -4.6718597l0 -3.6875q-1.453125 2.515625 -4.125 3.890625q-2.65625 1.375 -5.625 1.375zm2.53125 -6.0q1.21875 0 2.34375 -0.390625q1.125 -0.390625 2.078125 -1.0625q0.953125 -0.671875 1.671875 -1.59375q0.734375 -0.921875 1.125 -1.875l0 -7.0q-0.671875 -1.734375 -1.875 -3.015625q-1.203125 -1.296875 -2.6875 -2.0q-1.484375 -0.703125 -3.109375 -0.703125q-1.734375 0 -3.140625 0.734375q-1.390625 0.71875 -2.40625 2.046875q-1.0 1.3125 -1.53125 2.90625q-0.53125 1.59375 -0.53125 3.328125q0 1.796875 0.609375 3.375q0.609375 1.5625 1.703125 2.734375q1.09375 1.171875 2.578125 1.84375q1.484375 0.671875 3.171875 0.671875zm21.503967 5.828125l0 -29.34375l7.5 0l0 29.34375l-7.5 0zm0 -33.4375l0 -7.4375l7.5 0l0 7.4375l-7.5 0zm41.545654 33.4375l-7.5 0l0 -16.46875q0 -3.515625 -1.234375 -5.140625q-1.234375 -1.625 -3.421875 -1.625q-1.5 0 -3.046875 0.78125q-1.546875 0.78125 -2.78125 2.15625q-1.21875 1.375 -1.78125 3.15625l0 17.140625l-7.5 0l0 -29.34375l6.765625 0l0 5.4375q1.125 -1.90625 2.859375 -3.21875q1.734375 -1.328125 4.0 -2.015625q2.265625 -0.703125 4.796875 -0.703125q2.734375 0 4.5 0.984375q1.765625 0.96875 2.6875 2.625q0.921875 1.65625 1.28125 3.734375q0.375 2.0625 0.375 4.1875l0 18.3125zm18.0271 0.171875q-2.90625 0 -5.34375 -1.140625q-2.4375 -1.15625 -4.203125 -3.21875q-1.765625 -2.078125 -2.71875 -4.765625q-0.9375 -2.6875 -0.9375 -5.71875q0 -3.1875 1.0 -5.9375q1.015625 -2.75 2.828125 -4.84375q1.828125 -2.09375 4.3125 -3.234375q2.484375 -1.15625 5.515625 -1.15625q3.421875 0 5.984375 1.546875q2.578125 1.53125 4.265625 4.109375l0 -5.15625l6.546875 0l0 27.9375q0 4.3749847 -2.109375 7.4843597q-2.09375 3.109375 -5.796875 4.75q-3.6875 1.65625 -8.390625 1.65625q-4.75 0 -8.0625 -1.59375q-3.296875 -1.59375 -5.65625 -4.5l4.09375 -3.984375q1.671875 2.078125 4.21875 3.25q2.546875 1.171875 5.40625 1.171875q2.40625 0 4.390625 -0.875q2.0 -0.859375 3.203125 -2.6875q1.203125 -1.8125 1.203125 -4.6718597l0 -3.6875q-1.453125 2.515625 -4.125 3.890625q-2.65625 1.375 -5.625 1.375zm2.53125 -6.0q1.21875 0 2.34375 -0.390625q1.125 -0.390625 2.078125 -1.0625q0.953125 -0.671875 1.671875 -1.59375q0.734375 -0.921875 1.125 -1.875l0 -7.0q-0.671875 -1.734375 -1.875 -3.015625q-1.203125 -1.296875 -2.6875 -2.0q-1.484375 -0.703125 -3.109375 -0.703125q-1.734375 0 -3.140625 0.734375q-1.390625 0.71875 -2.40625 2.046875q-1.0 1.3125 -1.53125 2.90625q-0.53125 1.59375 -0.53125 3.328125q0 1.796875 0.609375 3.375q0.609375 1.5625 1.703125 2.734375q1.09375 1.171875 2.578125 1.84375q1.484375 0.671875 3.171875 0.671875zm52.522095 6.109375q-4.765625 0 -8.09375 -1.59375q-3.328125 -1.59375 -5.375 -4.390625q-2.046875 -2.8125 -3.0 -6.359375q-0.953125 -3.5625 -0.953125 -7.421875l0 -20.28125l7.734375 0l0 20.28125q0 2.453125 0.46875 4.78125q0.484375 2.328125 1.59375 4.171875q1.125 1.84375 2.96875 2.921875q1.859375 1.0625 4.59375 1.0625q2.8125 0 4.6875 -1.09375q1.875 -1.09375 2.96875 -2.9375q1.09375 -1.859375 1.59375 -4.171875q0.5 -2.328125 0.5 -4.734375l0 -20.28125l7.671875 0l0 20.28125q0 4.078125 -0.984375 7.671875q-0.96875 3.578125 -3.078125 6.296875q-2.09375 2.71875 -5.40625 4.265625q-3.296875 1.53125 -7.890625 1.53125zm34.490784 0.28125q-3.75 0 -7.171875 -1.234375q-3.40625 -1.234375 -5.875 -3.640625l2.6875 -4.875q2.640625 2.125 5.1875 3.140625q2.546875 1.0 4.890625 1.0q2.1875 0 3.5 -0.78125q1.328125 -0.78125 1.328125 -2.34375q0 -1.0625 -0.734375 -1.65625q-0.734375 -0.59375 -2.109375 -1.03125q-1.359375 -0.453125 -3.328125 -1.015625q-3.234375 -1.0625 -5.421875 -2.0625q-2.1875 -1.015625 -3.28125 -2.546875q-1.09375 -1.546875 -1.09375 -3.953125q0 -2.921875 1.484375 -5.015625q1.484375 -2.09375 4.140625 -3.265625q2.671875 -1.1875 6.25 -1.1875q3.140625 0 5.9375 0.984375q2.796875 0.984375 5.09375 3.15625l-3.015625 4.765625q-2.25 -1.734375 -4.265625 -2.546875q-2.015625 -0.8125 -4.078125 -0.8125q-1.1875 0 -2.21875 0.28125q-1.03125 0.28125 -1.6875 0.921875q-0.640625 0.640625 -0.640625 1.8125q0 1.078125 0.578125 1.671875q0.59375 0.578125 1.796875 1.03125q1.21875 0.4375 2.953125 1.0q3.515625 1.015625 5.953125 2.078125q2.4375 1.0625 3.671875 2.609375q1.234375 1.53125 1.234375 4.21875q0 4.359375 -3.203125 6.828125q-3.1875 2.46875 -8.5625 2.46875zm16.867126 -0.5625l0 -29.34375l7.5 0l0 29.34375l-7.5 0zm0 -33.4375l0 -7.4375l7.5 0l0 7.4375l-7.5 0zm41.545593 33.4375l-7.5 0l0 -16.46875q0 -3.515625 -1.234375 -5.140625q-1.234375 -1.625 -3.421875 -1.625q-1.5 0 -3.046875 0.78125q-1.546875 0.78125 -2.78125 2.15625q-1.21875 1.375 -1.78125 3.15625l0 17.140625l-7.5 0l0 -29.34375l6.765625 0l0 5.4375q1.125 -1.90625 2.859375 -3.21875q1.734375 -1.328125 4.0 -2.015625q2.265625 -0.703125 4.796875 -0.703125q2.734375 0 4.5 0.984375q1.765625 0.96875 2.6875 2.625q0.921875 1.65625 1.28125 3.734375q0.375 2.0625 0.375 4.1875l0 18.3125zm18.0271 0.171875q-2.90625 0 -5.34375 -1.140625q-2.4375 -1.15625 -4.203125 -3.21875q-1.765625 -2.078125 -2.71875 -4.765625q-0.9375 -2.6875 -0.9375 -5.71875q0 -3.1875 1.0 -5.9375q1.015625 -2.75 2.828125 -4.84375q1.828125 -2.09375 4.3125 -3.234375q2.484375 -1.15625 5.515625 -1.15625q3.421875 0 5.984375 1.546875q2.578125 1.53125 4.265625 4.109375l0 -5.15625l6.546875 0l0 27.9375q0 4.3749847 -2.109375 7.4843597q-2.09375 3.109375 -5.796875 4.75q-3.6875 1.65625 -8.390625 1.65625q-4.75 0 -8.0625 -1.59375q-3.296875 -1.59375 -5.65625 -4.5l4.09375 -3.984375q1.671875 2.078125 4.21875 3.25q2.546875 1.171875 5.40625 1.171875q2.40625 0 4.390625 -0.875q2.0 -0.859375 3.203125 -2.6875q1.203125 -1.8125 1.203125 -4.6718597l0 -3.6875q-1.453125 2.515625 -4.125 3.890625q-2.65625 1.375 -5.625 1.375zm2.53125 -6.0q1.21875 0 2.34375 -0.390625q1.125 -0.390625 2.078125 -1.0625q0.953125 -0.671875 1.671875 -1.59375q0.734375 -0.921875 1.125 -1.875l0 -7.0q-0.671875 -1.734375 -1.875 -3.015625q-1.203125 -1.296875 -2.6875 -2.0q-1.484375 -0.703125 -3.109375 -0.703125q-1.734375 0 -3.140625 0.734375q-1.390625 0.71875 -2.40625 2.046875q-1.0 1.3125 -1.53125 2.90625q-0.53125 1.59375 -0.53125 3.328125q0 1.796875 0.609375 3.375q0.609375 1.5625 1.703125 2.734375q1.09375 1.171875 2.578125 1.84375q1.484375 0.671875 3.171875 0.671875z" fill-rule="nonzero"/><path fill="#1a1a1a" d="m106.23893 268.88113q-3.859375 0 -7.3125 -1.5625q-3.4375 -1.578125 -6.046875 -4.34375q-2.59375 -2.78125 -4.046875 -6.46875q-1.453125 -3.703125 -1.453125 -8.015625q0 -4.078125 1.453125 -7.6875q1.453125 -3.625 4.078125 -6.359375q2.640625 -2.75 6.171875 -4.3125q3.53125 -1.578125 7.671875 -1.578125q5.59375 0 9.59375 2.390625q4.015625 2.375 6.03125 6.296875l-5.765625 4.25q-1.515625 -2.96875 -4.234375 -4.53125q-2.71875 -1.5625 -5.90625 -1.5625q-2.515625 0 -4.59375 1.0625q-2.078125 1.0625 -3.59375 2.90625q-1.5 1.84375 -2.3125 4.265625q-0.8125 2.40625 -0.8125 5.09375q0 2.84375 0.859375 5.265625q0.875 2.40625 2.46875 4.203125q1.59375 1.78125 3.71875 2.828125q2.140625 1.03125 4.71875 1.03125q3.015625 0 5.78125 -1.5625q2.78125 -1.578125 5.1875 -4.609375l0 7.625q-4.984375 5.375 -11.65625 5.375zm11.09375 -15.0625l-8.0 0l0 -5.65625l14.390625 0l0 20.4375l-6.390625 0l0 -14.78125zm23.803108 -24.984375l7.84375 0l14.609375 39.765625l-7.953125 0l-3.6875 -9.90625l-13.890625 0l-3.640625 9.90625l-7.9531174 0l14.671867 -39.765625zm9.40625 24.421875l-5.484375 -16.40625l-5.71875 16.40625l11.203125 0zm25.147629 -10.1875l0 25.53125l-7.734375 0l0 -39.765625l6.15625 0l20.5625 26.21875l0 -26.15625l7.71875 0l0 39.703125l-6.4375 0l-20.265625 -25.53125z" fill-rule="nonzero"/><path fill="#000000" fill-opacity="0.0" d="m76.60105 333.11285l807.1496 0l0 74.80316l-807.1496 0z" fill-rule="evenodd"/><path fill="#595959" d="m93.33543 356.51474l0 6.078125l-2.046875 0l0 -6.078125l-5.609375 -9.203125l1.8125 0q0.28125 0 0.4375 0.140625q0.171875 0.140625 0.28125 0.34375l3.5 5.9375q0.21875 0.375 0.359375 0.703125q0.140625 0.328125 0.265625 0.65625q0.109375 -0.34375 0.25 -0.671875q0.140625 -0.328125 0.359375 -0.6875l3.484375 -5.9375q0.09375 -0.171875 0.25 -0.328125q0.171875 -0.15625 0.4375 -0.15625l1.828125 0l-5.609375 9.203125zm9.896133 -4.890625q1.1875 0 2.140625 0.390625q0.953125 0.390625 1.625 1.125q0.671875 0.71875 1.015625 1.75q0.359375 1.03125 0.359375 2.296875q0 1.28125 -0.359375 2.3125q-0.34375 1.015625 -1.015625 1.75q-0.671875 0.71875 -1.625 1.109375q-0.953125 0.390625 -2.140625 0.390625q-1.171875 0 -2.125 -0.390625q-0.953125 -0.390625 -1.625 -1.109375q-0.671875 -0.734375 -1.046875 -1.75q-0.359375 -1.03125 -0.359375 -2.3125q0 -1.265625 0.359375 -2.296875q0.375 -1.03125 1.046875 -1.75q0.671875 -0.734375 1.625 -1.125q0.953125 -0.390625 2.125 -0.390625zm0 9.640625q1.609375 0 2.390625 -1.0625q0.796875 -1.078125 0.796875 -3.0q0 -1.9375 -0.796875 -3.015625q-0.78125 -1.078125 -2.390625 -1.078125q-0.796875 0 -1.40625 0.28125q-0.59375 0.28125 -1.0 0.8125q-0.390625 0.515625 -0.59375 1.28125q-0.1875 0.75 -0.1875 1.71875q0 0.953125 0.1875 1.71875q0.203125 0.75 0.59375 1.265625q0.40625 0.515625 1.0 0.796875q0.609375 0.28125 1.40625 0.28125zm7.4989777 1.328125l0 -10.796875l1.125 0q0.40625 0 0.515625 0.390625l0.140625 1.171875q0.703125 -0.78125 1.578125 -1.25q0.875 -0.484375 2.015625 -0.484375q0.875 0 1.546875 0.296875q0.6875 0.28125 1.140625 0.828125q0.453125 0.53125 0.6875 1.296875q0.234375 0.75 0.234375 1.671875l0 6.875l-1.890625 0l0 -6.875q0 -1.234375 -0.5625 -1.90625q-0.5625 -0.671875 -1.71875 -0.671875q-0.84375 0 -1.578125 0.40625q-0.71875 0.390625 -1.34375 1.09375l0 7.953125l-1.890625 0zm15.483353 -10.984375q0.703125 0 1.3125 0.15625q0.6249924 0.15625 1.1249924 0.453125l2.9375 0l0 0.703125q0 0.34375 -0.453125 0.453125l-1.21875 0.171875q0.359375 0.6875 0.359375 1.546875q0 0.78125 -0.3125 1.4375q-0.296875 0.640625 -0.84375 1.09375q-0.53125 0.453125 -1.2812424 0.703125q-0.734375 0.25 -1.625 0.25q-0.75 0 -1.421875 -0.1875q-0.34375 0.21875 -0.515625 0.46875q-0.171875 0.234375 -0.171875 0.46875q0 0.390625 0.296875 0.59375q0.3125 0.1875 0.828125 0.28125q0.515625 0.078125 1.15625 0.109375q0.65625 0.015625 1.328125 0.0625q0.6874924 0.046875 1.3281174 0.171875q0.65625 0.109375 1.15625 0.375q0.515625 0.265625 0.828125 0.734375q0.3125 0.46875 0.3125 1.21875q0 0.6875 -0.34375 1.328125q-0.34375 0.65625 -1.0 1.15625q-0.65625 0.515625 -1.59375 0.8125q-0.9374924 0.3125 -2.1249924 0.3125q-1.171875 0 -2.0625 -0.234375q-0.890625 -0.234375 -1.484375 -0.625q-0.578125 -0.390625 -0.875 -0.921875q-0.296875 -0.515625 -0.296875 -1.078125q0 -0.796875 0.5 -1.359375q0.515625 -0.5625 1.40625 -0.890625q-0.46875 -0.203125 -0.75 -0.5625q-0.265625 -0.359375 -0.265625 -0.953125q0 -0.234375 0.078125 -0.484375q0.09375 -0.25 0.265625 -0.5q0.1875 -0.25 0.4375 -0.46875q0.265625 -0.234375 0.59375 -0.390625q-0.796875 -0.453125 -1.25 -1.1875q-0.453125 -0.75 -0.453125 -1.734375q0 -0.796875 0.296875 -1.4375q0.3125 -0.65625 0.859375 -1.109375q0.546875 -0.453125 1.296875 -0.6875q0.75 -0.25 1.640625 -0.25zm3.3749924 11.578125q0 -0.40625 -0.234375 -0.65625q-0.21875 -0.25 -0.609375 -0.375q-0.375 -0.140625 -0.8749924 -0.203125q-0.5 -0.0625 -1.0625 -0.078125q-0.546875 -0.03125 -1.125 -0.0625q-0.578125 -0.046875 -1.09375 -0.125q-0.609375 0.28125 -0.984375 0.703125q-0.375 0.421875 -0.375 1.0q0 0.359375 0.171875 0.671875q0.1875 0.3125 0.578125 0.53125q0.390625 0.234375 0.96875 0.359375q0.578125 0.140625 1.375 0.140625q0.765625 0 1.359375 -0.140625q0.6093674 -0.125 1.0312424 -0.390625q0.421875 -0.25 0.640625 -0.609375q0.234375 -0.34375 0.234375 -0.765625zm-3.3749924 -5.875q0.578125 0 1.015625 -0.15625q0.453125 -0.15625 0.75 -0.4375q0.29686737 -0.296875 0.43749237 -0.6875q0.15625 -0.40625 0.15625 -0.890625q0 -1.0 -0.6093674 -1.578125q-0.59375 -0.59375 -1.75 -0.59375q-1.140625 0 -1.75 0.59375q-0.59375 0.578125 -0.59375 1.578125q0 0.484375 0.15625 0.890625q0.15625 0.390625 0.453125 0.6875q0.296875 0.28125 0.734375 0.4375q0.4375 0.15625 1.0 0.15625zm22.327385 -10.0l0 0.765625q0 0.359375 -0.21875 0.6875l-8.65625 12.140625l8.71875 0l0 1.6875l-11.421875 0l0 -0.8125q0 -0.3125 0.203125 -0.609375l8.65625 -12.171875l-8.453125 0l0 -1.6875l11.171875 0zm2.3711548 15.28125l0 -15.703125l1.890625 0l0 6.34375q0.6875 -0.734375 1.53125 -1.171875q0.84375 -0.4375 1.953125 -0.4375q0.875 0 1.546875 0.296875q0.6875 0.28125 1.140625 0.828125q0.453125 0.53125 0.6875 1.296875q0.234375 0.75 0.234375 1.671875l0 6.875l-1.890625 0l0 -6.875q0 -1.234375 -0.5625 -1.90625q-0.5625 -0.671875 -1.71875 -0.671875q-0.84375 0 -1.578125 0.40625q-0.71875 0.390625 -1.34375 1.09375l0 7.953125l-1.890625 0zm16.123978 -10.96875q0.96875 0 1.796875 0.328125q0.828125 0.3125 1.421875 0.9375q0.59375 0.609375 0.921875 1.515625q0.34375 0.890625 0.34375 2.046875q0 0.453125 -0.09375 0.609375q-0.09375 0.140625 -0.359375 0.140625l-7.1875 0q0.015625 1.015625 0.265625 1.78125q0.265625 0.75 0.703125 1.265625q0.453125 0.5 1.0625 0.75q0.625 0.25 1.390625 0.25q0.71875 0 1.234375 -0.15625q0.515625 -0.171875 0.890625 -0.359375q0.375 -0.203125 0.625 -0.359375q0.25 -0.171875 0.4375 -0.171875q0.234375 0 0.359375 0.1875l0.53125 0.6875q-0.34375 0.421875 -0.84375 0.75q-0.484375 0.3125 -1.046875 0.515625q-0.5625 0.203125 -1.15625 0.296875q-0.59375 0.109375 -1.1875 0.109375q-1.125 0 -2.0625 -0.375q-0.9375 -0.390625 -1.625 -1.109375q-0.6875 -0.734375 -1.078125 -1.8125q-0.375 -1.078125 -0.375 -2.484375q0 -1.125 0.34375 -2.109375q0.34375 -0.984375 0.984375 -1.703125q0.65625 -0.71875 1.59375 -1.125q0.9375 -0.40625 2.109375 -0.40625zm0.046875 1.390625q-1.375 0 -2.171875 0.796875q-0.78125 0.796875 -0.96875 2.203125l5.875 0q0 -0.65625 -0.1875 -1.203125q-0.171875 -0.5625 -0.53125 -0.953125q-0.34375 -0.40625 -0.859375 -0.625q-0.5 -0.21875 -1.15625 -0.21875zm6.8633575 9.578125l0 -10.796875l1.125 0q0.40625 0 0.515625 0.390625l0.140625 1.171875q0.703125 -0.78125 1.578125 -1.25q0.875 -0.484375 2.015625 -0.484375q0.875 0 1.546875 0.296875q0.6875 0.28125 1.140625 0.828125q0.453125 0.53125 0.6875 1.296875q0.234375 0.75 0.234375 1.671875l0 6.875l-1.890625 0l0 -6.875q0 -1.234375 -0.5625 -1.90625q-0.5625 -0.671875 -1.71875 -0.671875q-0.84375 0 -1.578125 0.40625q-0.71875 0.390625 -1.34375 1.09375l0 7.953125l-1.890625 0zm15.483353 -10.984375q0.703125 0 1.3125 0.15625q0.625 0.15625 1.125 0.453125l2.9375 0l0 0.703125q0 0.34375 -0.453125 0.453125l-1.21875 0.171875q0.359375 0.6875 0.359375 1.546875q0 0.78125 -0.3125 1.4375q-0.296875 0.640625 -0.84375 1.09375q-0.53125 0.453125 -1.28125 0.703125q-0.734375 0.25 -1.625 0.25q-0.75 0 -1.421875 -0.1875q-0.34375 0.21875 -0.515625 0.46875q-0.171875 0.234375 -0.171875 0.46875q0 0.390625 0.296875 0.59375q0.3125 0.1875 0.828125 0.28125q0.515625 0.078125 1.15625 0.109375q0.65625 0.015625 1.328125 0.0625q0.6875 0.046875 1.328125 0.171875q0.65625 0.109375 1.15625 0.375q0.515625 0.265625 0.828125 0.734375q0.3125 0.46875 0.3125 1.21875q0 0.6875 -0.34375 1.328125q-0.34375 0.65625 -1.0 1.15625q-0.65625 0.515625 -1.59375 0.8125q-0.9375 0.3125 -2.125 0.3125q-1.171875 0 -2.0625 -0.234375q-0.890625 -0.234375 -1.484375 -0.625q-0.578125 -0.390625 -0.875 -0.921875q-0.296875 -0.515625 -0.296875 -1.078125q0 -0.796875 0.5 -1.359375q0.515625 -0.5625 1.40625 -0.890625q-0.46875 -0.203125 -0.75 -0.5625q-0.265625 -0.359375 -0.265625 -0.953125q0 -0.234375 0.078125 -0.484375q0.09375 -0.25 0.265625 -0.5q0.1875 -0.25 0.4375 -0.46875q0.265625 -0.234375 0.59375 -0.390625q-0.796875 -0.453125 -1.25 -1.1875q-0.453125 -0.75 -0.453125 -1.734375q0 -0.796875 0.296875 -1.4375q0.3125 -0.65625 0.859375 -1.109375q0.546875 -0.453125 1.296875 -0.6875q0.75 -0.25 1.640625 -0.25zm3.375 11.578125q0 -0.40625 -0.234375 -0.65625q-0.21875 -0.25 -0.609375 -0.375q-0.375 -0.140625 -0.875 -0.203125q-0.5 -0.0625 -1.0625 -0.078125q-0.546875 -0.03125 -1.125 -0.0625q-0.578125 -0.046875 -1.09375 -0.125q-0.609375 0.28125 -0.984375 0.703125q-0.375 0.421875 -0.375 1.0q0 0.359375 0.171875 0.671875q0.1875 0.3125 0.578125 0.53125q0.390625 0.234375 0.96875 0.359375q0.578125 0.140625 1.375 0.140625q0.765625 0 1.359375 -0.140625q0.609375 -0.125 1.03125 -0.390625q0.421875 -0.25 0.640625 -0.609375q0.234375 -0.34375 0.234375 -0.765625zm-3.375 -5.875q0.578125 0 1.015625 -0.15625q0.453125 -0.15625 0.75 -0.4375q0.296875 -0.296875 0.4375 -0.6875q0.15625 -0.40625 0.15625 -0.890625q0 -1.0 -0.609375 -1.578125q-0.59375 -0.59375 -1.75 -0.59375q-1.140625 0 -1.75 0.59375q-0.59375 0.578125 -0.59375 1.578125q0 0.484375 0.15625 0.890625q0.15625 0.390625 0.453125 0.6875q0.296875 0.28125 0.734375 0.4375q0.4375 0.15625 1.0 0.15625zm25.874268 -2.359375q0 1.71875 -0.546875 3.15625q-0.53125 1.4375 -1.53125 2.46875q-0.984375 1.03125 -2.390625 1.609375q-1.390625 0.5625 -3.0625 0.5625q-1.6875 0 -3.078125 -0.5625q-1.390625 -0.578125 -2.390625 -1.609375q-0.984375 -1.03125 -1.53125 -2.46875q-0.53125 -1.4375 -0.53125 -3.15625q0 -1.71875 0.53125 -3.140625q0.546875 -1.4375 1.53125 -2.46875q1.0 -1.046875 2.390625 -1.625q1.390625 -0.578125 3.078125 -0.578125q1.671875 0 3.0625 0.578125q1.40625 0.578125 2.390625 1.625q1.0 1.03125 1.53125 2.46875q0.546875 1.421875 0.546875 3.140625zm-2.125 0q0 -1.40625 -0.390625 -2.515625q-0.375 -1.125 -1.078125 -1.890625q-0.703125 -0.78125 -1.703125 -1.1875q-1.0 -0.421875 -2.234375 -0.421875q-1.234375 0 -2.234375 0.421875q-1.0 0.40625 -1.71875 1.1875q-0.703125 0.765625 -1.09375 1.890625q-0.375 1.109375 -0.375 2.515625q0 1.40625 0.375 2.53125q0.390625 1.109375 1.09375 1.890625q0.71875 0.765625 1.71875 1.1875q1.0 0.40625 2.234375 0.40625q1.234375 0 2.234375 -0.40625q1.0 -0.421875 1.703125 -1.1875q0.703125 -0.78125 1.078125 -1.890625q0.390625 -1.125 0.390625 -2.53125zm4.6603546 7.640625l0 -10.796875l1.125 0q0.40625 0 0.515625 0.390625l0.140625 1.171875q0.703125 -0.78125 1.578125 -1.25q0.875 -0.484375 2.015625 -0.484375q0.875 0 1.546875 0.296875q0.6875 0.28125 1.140625 0.828125q0.453125 0.53125 0.6875 1.296875q0.234375 0.75 0.234375 1.671875l0 6.875l-1.890625 0l0 -6.875q0 -1.234375 -0.5625 -1.90625q-0.5625 -0.671875 -1.71875 -0.671875q-0.84375 0 -1.578125 0.40625q-0.71875 0.390625 -1.34375 1.09375l0 7.953125l-1.890625 0zm15.483353 -10.984375q0.703125 0 1.3125 0.15625q0.625 0.15625 1.125 0.453125l2.9375 0l0 0.703125q0 0.34375 -0.453125 0.453125l-1.21875 0.171875q0.359375 0.6875 0.359375 1.546875q0 0.78125 -0.3125 1.4375q-0.296875 0.640625 -0.84375 1.09375q-0.53125 0.453125 -1.28125 0.703125q-0.734375 0.25 -1.625 0.25q-0.75 0 -1.421875 -0.1875q-0.34375 0.21875 -0.515625 0.46875q-0.171875 0.234375 -0.171875 0.46875q0 0.390625 0.296875 0.59375q0.3125 0.1875 0.828125 0.28125q0.515625 0.078125 1.15625 0.109375q0.65625 0.015625 1.328125 0.0625q0.6875 0.046875 1.328125 0.171875q0.65625 0.109375 1.15625 0.375q0.515625 0.265625 0.828125 0.734375q0.3125 0.46875 0.3125 1.21875q0 0.6875 -0.34375 1.328125q-0.34375 0.65625 -1.0 1.15625q-0.65625 0.515625 -1.59375 0.8125q-0.9375 0.3125 -2.125 0.3125q-1.171875 0 -2.0625 -0.234375q-0.890625 -0.234375 -1.484375 -0.625q-0.578125 -0.390625 -0.875 -0.921875q-0.296875 -0.515625 -0.296875 -1.078125q0 -0.796875 0.5 -1.359375q0.515625 -0.5625 1.40625 -0.890625q-0.46875 -0.203125 -0.75 -0.5625q-0.265625 -0.359375 -0.265625 -0.953125q0 -0.234375 0.078125 -0.484375q0.09375 -0.25 0.265625 -0.5q0.1875 -0.25 0.4375 -0.46875q0.265625 -0.234375 0.59375 -0.390625q-0.796875 -0.453125 -1.25 -1.1875q-0.453125 -0.75 -0.453125 -1.734375q0 -0.796875 0.296875 -1.4375q0.3125 -0.65625 0.859375 -1.109375q0.546875 -0.453125 1.296875 -0.6875q0.75 -0.25 1.640625 -0.25zm3.375 11.578125q0 -0.40625 -0.234375 -0.65625q-0.21875 -0.25 -0.609375 -0.375q-0.375 -0.140625 -0.875 -0.203125q-0.5 -0.0625 -1.0625 -0.078125q-0.546875 -0.03125 -1.125 -0.0625q-0.578125 -0.046875 -1.09375 -0.125q-0.609375 0.28125 -0.984375 0.703125q-0.375 0.421875 -0.375 1.0q0 0.359375 0.171875 0.671875q0.1875 0.3125 0.578125 0.53125q0.390625 0.234375 0.96875 0.359375q0.578125 0.140625 1.375 0.140625q0.765625 0 1.359375 -0.140625q0.609375 -0.125 1.03125 -0.390625q0.421875 -0.25 0.640625 -0.609375q0.234375 -0.34375 0.234375 -0.765625zm-3.375 -5.875q0.578125 0 1.015625 -0.15625q0.453125 -0.15625 0.75 -0.4375q0.296875 -0.296875 0.4375 -0.6875q0.15625 -0.40625 0.15625 -0.890625q0 -1.0 -0.609375 -1.578125q-0.59375 -0.59375 -1.75 -0.59375q-1.140625 0 -1.75 0.59375q-0.59375 0.578125 -0.59375 1.578125q0 0.484375 0.15625 0.890625q0.15625 0.390625 0.453125 0.6875q0.296875 0.28125 0.734375 0.4375q0.4375 0.15625 1.0 0.15625zm6.71109 3.96875q0 -0.25 0.09375 -0.46875q0.09375 -0.21875 0.25 -0.375q0.171875 -0.171875 0.40625 -0.265625q0.234375 -0.09375 0.515625 -0.09375q0.3125 0 0.5625 0.125q0.25 0.109375 0.40625 0.328125q0.171875 0.203125 0.25 0.46875q0.09375 0.265625 0.09375 0.59375q0 0.484375 -0.140625 1.0q-0.125 0.515625 -0.390625 1.015625q-0.25 0.515625 -0.640625 0.984375q-0.375 0.484375 -0.84375 0.890625l-0.328125 -0.3125q-0.140625 -0.125 -0.140625 -0.296875q0 -0.140625 0.15625 -0.28125q0.109375 -0.125 0.265625 -0.328125q0.171875 -0.1875 0.34375 -0.453125q0.171875 -0.25 0.3125 -0.5625q0.140625 -0.296875 0.203125 -0.65625l-0.140625 0q-0.265625 0 -0.5 -0.09375q-0.21875 -0.09375 -0.390625 -0.265625q-0.15625 -0.1875 -0.25 -0.421875q-0.09375 -0.25 -0.09375 -0.53125zm10.559708 -13.96875q0.28125 0 0.40625 0.078125q0.140625 0.0625 0.3125 0.28125l8.843765 11.515625q-0.03125 -0.28125 -0.046875 -0.546875q0 -0.265625 0 -0.5l0 -10.828125l1.8125 0l0 15.28125l-1.046875 0q-0.25 0 -0.421875 -0.078125q-0.15625 -0.09375 -0.3125 -0.296875l-8.843765 -11.5q0.015625 0.265625 0.03125 0.53125q0.015625 0.25 0.015625 0.453125l0 10.890625l-1.8125 0l0 -15.28125l1.0625 0l0 0zm22.686447 15.28125l-0.828125 0q-0.28125 0 -0.453125 -0.078125q-0.171875 -0.09375 -0.21875 -0.375l-0.21875 -1.0q-0.421875 0.390625 -0.828125 0.703125q-0.40625 0.296875 -0.859375 0.5q-0.453125 0.203125 -0.953125 0.3125q-0.5 0.109375 -1.125 0.109375q-0.625 0 -1.1875 -0.171875q-0.546875 -0.1875 -0.953125 -0.53125q-0.390625 -0.359375 -0.640625 -0.890625q-0.234375 -0.546875 -0.234375 -1.28125q0 -0.640625 0.34375 -1.21875q0.359375 -0.59375 1.140625 -1.046875q0.78125 -0.46875 2.046875 -0.765625q1.28125 -0.296875 3.109375 -0.328125l0 -0.84375q0 -1.265625 -0.546875 -1.90625q-0.53125 -0.640625 -1.59375 -0.640625q-0.6875 0 -1.171875 0.171875q-0.46875 0.171875 -0.8125 0.390625q-0.34375 0.21875 -0.59375 0.40625q-0.25 0.171875 -0.5 0.171875q-0.1875 0 -0.328125 -0.09375q-0.140625 -0.109375 -0.234375 -0.265625l-0.34375 -0.609375q0.90625 -0.859375 1.9375 -1.28125q1.03125 -0.4375 2.28125 -0.4375q0.921875 0 1.625 0.3125q0.703125 0.296875 1.171875 0.828125q0.484375 0.53125 0.71875 1.296875q0.25 0.75 0.25 1.65625l0 6.90625zm-4.921875 -1.15625q0.5 0 0.90625 -0.09375q0.421875 -0.109375 0.796875 -0.296875q0.375 -0.1875 0.703125 -0.453125q0.34375 -0.265625 0.65625 -0.609375l0 -2.25q-1.3125 0.046875 -2.234375 0.21875q-0.90625 0.15625 -1.484375 0.421875q-0.578125 0.265625 -0.84375 0.625q-0.265625 0.359375 -0.265625 0.8125q0 0.421875 0.140625 0.734375q0.140625 0.3125 0.375 0.515625q0.234375 0.1875 0.546875 0.28125q0.328125 0.09375 0.703125 0.09375zm7.8132935 1.15625l0 -10.796875l1.125 0q0.40625 0 0.515625 0.390625l0.140625 1.171875q0.703125 -0.78125 1.578125 -1.25q0.875 -0.484375 2.015625 -0.484375q0.875 0 1.546875 0.296875q0.6875 0.28125 1.140625 0.828125q0.453125 0.53125 0.6875 1.296875q0.234375 0.75 0.234375 1.671875l0 6.875l-1.890625 0l0 -6.875q0 -1.234375 -0.5625 -1.90625q-0.5625 -0.671875 -1.71875 -0.671875q-0.84375 0 -1.578125 0.40625q-0.71875 0.390625 -1.34375 1.09375l0 7.953125l-1.890625 0zm22.146515 -6.078125l0 6.078125l-2.046875 0l0 -6.078125l-5.609375 -9.203125l1.8125 0q0.28125 0 0.4375 0.140625q0.171875 0.140625 0.28125 0.34375l3.5 5.9375q0.21875 0.375 0.359375 0.703125q0.140625 0.328125 0.265625 0.65625q0.109375 -0.34375 0.25 -0.671875q0.140625 -0.328125 0.359375 -0.6875l3.484375 -5.9375q0.09375 -0.171875 0.25 -0.328125q0.171875 -0.15625 0.4375 -0.15625l1.828125 0l-5.609375 9.203125zm9.896149 -4.890625q1.1875 0 2.140625 0.390625q0.953125 0.390625 1.625 1.125q0.671875 0.71875 1.015625 1.75q0.359375 1.03125 0.359375 2.296875q0 1.28125 -0.359375 2.3125q-0.34375 1.015625 -1.015625 1.75q-0.671875 0.71875 -1.625 1.109375q-0.953125 0.390625 -2.140625 0.390625q-1.171875 0 -2.125 -0.390625q-0.953125 -0.390625 -1.625 -1.109375q-0.671875 -0.734375 -1.046875 -1.75q-0.359375 -1.03125 -0.359375 -2.3125q0 -1.265625 0.359375 -2.296875q0.375 -1.03125 1.046875 -1.75q0.671875 -0.734375 1.625 -1.125q0.953125 -0.390625 2.125 -0.390625zm0 9.640625q1.609375 0 2.390625 -1.0625q0.796875 -1.078125 0.796875 -3.0q0 -1.9375 -0.796875 -3.015625q-0.78125 -1.078125 -2.390625 -1.078125q-0.796875 0 -1.40625 0.28125q-0.59375 0.28125 -1.0 0.8125q-0.390625 0.515625 -0.59375 1.28125q-0.1875 0.75 -0.1875 1.71875q0 0.953125 0.1875 1.71875q0.203125 0.75 0.59375 1.265625q0.40625 0.515625 1.0 0.796875q0.609375 0.28125 1.40625 0.28125zm9.139587 -9.46875l0 6.890625q0 1.21875 0.5625 1.890625q0.5625 0.671875 1.703125 0.671875q0.828125 0 1.5625 -0.390625q0.75 -0.390625 1.359375 -1.109375l0 -7.953125l1.90625 0l0 10.796875l-1.140625 0q-0.40625 0 -0.5 -0.390625l-0.15625 -1.171875q-0.703125 0.78125 -1.578125 1.265625q-0.875 0.46875 -2.0 0.46875q-0.890625 0 -1.578125 -0.296875q-0.671875 -0.296875 -1.125 -0.828125q-0.453125 -0.53125 -0.6875 -1.28125q-0.234375 -0.765625 -0.234375 -1.671875l0 -6.890625l1.90625 0zm9.655243 9.484375q0 -0.25 0.09375 -0.46875q0.09375 -0.21875 0.25 -0.375q0.171875 -0.171875 0.40625 -0.265625q0.234375 -0.09375 0.515625 -0.09375q0.3125 0 0.5625 0.125q0.25 0.109375 0.40625 0.328125q0.171875 0.203125 0.25 0.46875q0.09375 0.265625 0.09375 0.59375q0 0.484375 -0.140625 1.0q-0.125 0.515625 -0.390625 1.015625q-0.25 0.515625 -0.640625 0.984375q-0.375 0.484375 -0.84375 0.890625l-0.328125 -0.3125q-0.140625 -0.125 -0.140625 -0.296875q0 -0.140625 0.15625 -0.28125q0.109375 -0.125 0.265625 -0.328125q0.171875 -0.1875 0.34375 -0.453125q0.171875 -0.25 0.3125 -0.5625q0.140625 -0.296875 0.203125 -0.65625l-0.140625 0q-0.265625 0 -0.5 -0.09375q-0.21875 -0.09375 -0.390625 -0.265625q-0.15625 -0.1875 -0.25 -0.421875q-0.09375 -0.25 -0.09375 -0.53125zm15.372192 -4.765625l0 6.078125l-2.046875 0l0 -6.078125l-5.609375 -9.203125l1.8125 0q0.28125 0 0.4375 0.140625q0.171875 0.140625 0.28125 0.34375l3.5 5.9375q0.21875 0.375 0.359375 0.703125q0.140625 0.328125 0.265625 0.65625q0.109375 -0.34375 0.25 -0.671875q0.140625 -0.328125 0.359375 -0.6875l3.484375 -5.9375q0.09375 -0.171875 0.25 -0.328125q0.171875 -0.15625 0.4375 -0.15625l1.828125 0l-5.609375 9.203125zm7.5827026 -4.71875l0 6.890625q0 1.21875 0.5625 1.890625q0.5625 0.671875 1.703125 0.671875q0.828125 0 1.5625 -0.390625q0.75 -0.390625 1.359375 -1.109375l0 -7.953125l1.90625 0l0 10.796875l-1.140625 0q-0.40625 0 -0.5 -0.390625l-0.15625 -1.171875q-0.703125 0.78125 -1.578125 1.265625q-0.875 0.46875 -2.0 0.46875q-0.890625 0 -1.578125 -0.296875q-0.671875 -0.296875 -1.125 -0.828125q-0.453125 -0.53125 -0.6875 -1.28125q-0.234375 -0.765625 -0.234375 -1.671875l0 -6.890625l1.90625 0zm10.217712 10.796875l0 -10.796875l1.125 0q0.40625 0 0.515625 0.390625l0.140625 1.171875q0.703125 -0.78125 1.578125 -1.25q0.875 -0.484375 2.015625 -0.484375q0.875 0 1.546875 0.296875q0.6875 0.28125 1.140625 0.828125q0.453125 0.53125 0.6875 1.296875q0.234375 0.75 0.234375 1.671875l0 6.875l-1.890625 0l0 -6.875q0 -1.234375 -0.5625 -1.90625q-0.5625 -0.671875 -1.71875 -0.671875q-0.84375 0 -1.578125 0.40625q-0.71875 0.390625 -1.34375 1.09375l0 7.953125l-1.890625 0zm14.673279 3.1875q-0.09375 0.21875 -0.234375 0.34375q-0.140625 0.125 -0.4375 0.125l-1.40625 0l1.96875 -4.28125l-4.453125 -10.171875l1.640625 0q0.234375 0 0.375 0.125q0.140625 0.109375 0.203125 0.265625l2.890625 6.796875q0.09375 0.234375 0.15625 0.46875q0.078125 0.234375 0.140625 0.484375q0.0625 -0.25 0.140625 -0.484375q0.078125 -0.234375 0.171875 -0.46875l2.8125 -6.796875q0.0625 -0.171875 0.203125 -0.28125q0.15625 -0.109375 0.34375 -0.109375l1.515625 0l-6.03125 13.984375zm9.404297 -13.984375l0 6.890625q0 1.21875 0.5625 1.890625q0.5625 0.671875 1.703125 0.671875q0.828125 0 1.5625 -0.390625q0.75 -0.390625 1.359375 -1.109375l0 -7.953125l1.90625 0l0 10.796875l-1.140625 0q-0.40625 0 -0.5 -0.390625l-0.15625 -1.171875q-0.703125 0.78125 -1.578125 1.265625q-0.875 0.46875 -2.0 0.46875q-0.890625 0 -1.578125 -0.296875q-0.671875 -0.296875 -1.125 -0.828125q-0.453125 -0.53125 -0.6875 -1.28125q-0.234375 -0.765625 -0.234375 -1.671875l0 -6.890625l1.90625 0zm14.483337 -0.171875q0.96875 0 1.796875 0.328125q0.828125 0.3125 1.421875 0.9375q0.59375 0.609375 0.921875 1.515625q0.34375 0.890625 0.34375 2.046875q0 0.453125 -0.09375 0.609375q-0.09375 0.140625 -0.359375 0.140625l-7.1875 0q0.015625 1.015625 0.265625 1.78125q0.265625 0.75 0.703125 1.265625q0.453125 0.5 1.0625 0.75q0.625 0.25 1.390625 0.25q0.71875 0 1.234375 -0.15625q0.515625 -0.171875 0.890625 -0.359375q0.375 -0.203125 0.625 -0.359375q0.25 -0.171875 0.4375 -0.171875q0.234375 0 0.359375 0.1875l0.53125 0.6875q-0.34375 0.421875 -0.84375 0.75q-0.484375 0.3125 -1.046875 0.515625q-0.5625 0.203125 -1.15625 0.296875q-0.59375 0.109375 -1.1875 0.109375q-1.125 0 -2.0625 -0.375q-0.9375 -0.390625 -1.625 -1.109375q-0.6875 -0.734375 -1.078125 -1.8125q-0.375 -1.078125 -0.375 -2.484375q0 -1.125 0.34375 -2.109375q0.34375 -0.984375 0.984375 -1.703125q0.65625 -0.71875 1.59375 -1.125q0.9375 -0.40625 2.109375 -0.40625zm0.046875 1.390625q-1.375 0 -2.171875 0.796875q-0.78125 0.796875 -0.96875 2.203125l5.875 0q0 -0.65625 -0.1875 -1.203125q-0.171875 -0.5625 -0.53125 -0.953125q-0.34375 -0.40625 -0.859375 -0.625q-0.5 -0.21875 -1.15625 -0.21875zm20.68277 -5.703125l0 1.6875l-7.328125 0l0 5.078125l5.9375 0l0 1.609375l-5.9375 0l0 5.21875l7.328125 0l0 1.6875l-9.40625 0l0 -15.28125l9.40625 0zm4.797821 -0.421875l0 15.703125l-1.90625 0l0 -15.703125l1.90625 0zm5.459961 4.90625l0 10.796875l-1.90625 0l0 -10.796875l1.90625 0zm0.421875 -3.390625q0 0.265625 -0.109375 0.515625q-0.109375 0.234375 -0.296875 0.421875q-0.1875 0.1875 -0.4375 0.296875q-0.25 0.109375 -0.515625 0.109375q-0.28125 0 -0.53125 -0.109375q-0.234375 -0.109375 -0.421875 -0.296875q-0.1875 -0.1875 -0.296875 -0.421875q-0.09375 -0.25 -0.09375 -0.515625q0 -0.28125 0.09375 -0.53125q0.109375 -0.25 0.296875 -0.4375q0.1875 -0.1875 0.421875 -0.296875q0.25 -0.109375 0.53125 -0.109375q0.265625 0 0.515625 0.109375q0.25 0.109375 0.4375 0.296875q0.1875 0.1875 0.296875 0.4375q0.109375 0.25 0.109375 0.53125zm6.194336 14.359375q-1.28125 0 -1.96875 -0.71875q-0.6875 -0.71875 -0.6875 -2.0625l0 -6.609375l-1.296875 0q-0.171875 0 -0.296875 -0.09375q-0.109375 -0.109375 -0.109375 -0.3125l0 -0.765625l1.765625 -0.21875l0.4375 -3.34375q0.03125 -0.15625 0.140625 -0.25q0.125 -0.109375 0.296875 -0.109375l0.96875 0l0 3.71875l3.09375 0l0 1.375l-3.09375 0l0 6.484375q0 0.6875 0.328125 1.015625q0.328125 0.328125 0.84375 0.328125q0.3125 0 0.53125 -0.078125q0.21875 -0.078125 0.375 -0.171875q0.15625 -0.09375 0.265625 -0.171875q0.109375 -0.078125 0.203125 -0.078125q0.140625 0 0.265625 0.171875l0.546875 0.90625q-0.484375 0.453125 -1.1875 0.71875q-0.6875 0.265625 -1.421875 0.265625zm12.611572 -0.171875l-0.828125 0q-0.28125 0 -0.453125 -0.078125q-0.171875 -0.09375 -0.21875 -0.375l-0.21875 -1.0q-0.421875 0.390625 -0.828125 0.703125q-0.40625 0.296875 -0.859375 0.5q-0.453125 0.203125 -0.953125 0.3125q-0.5 0.109375 -1.125 0.109375q-0.625 0 -1.1875 -0.171875q-0.546875 -0.1875 -0.953125 -0.53125q-0.390625 -0.359375 -0.640625 -0.890625q-0.234375 -0.546875 -0.234375 -1.28125q0 -0.640625 0.34375 -1.21875q0.359375 -0.59375 1.140625 -1.046875q0.78125 -0.46875 2.046875 -0.765625q1.28125 -0.296875 3.109375 -0.328125l0 -0.84375q0 -1.265625 -0.546875 -1.90625q-0.53125 -0.640625 -1.59375 -0.640625q-0.6875 0 -1.171875 0.171875q-0.46875 0.171875 -0.8125 0.390625q-0.34375 0.21875 -0.59375 0.40625q-0.25 0.171875 -0.5 0.171875q-0.1875 0 -0.328125 -0.09375q-0.140625 -0.109375 -0.234375 -0.265625l-0.34375 -0.609375q0.90625 -0.859375 1.9375 -1.28125q1.03125 -0.4375 2.28125 -0.4375q0.921875 0 1.625 0.3125q0.703125 0.296875 1.171875 0.828125q0.484375 0.53125 0.71875 1.296875q0.25 0.75 0.25 1.65625l0 6.90625zm-4.921875 -1.15625q0.5 0 0.90625 -0.09375q0.421875 -0.109375 0.796875 -0.296875q0.375 -0.1875 0.703125 -0.453125q0.34375 -0.265625 0.65625 -0.609375l0 -2.25q-1.3125 0.046875 -2.234375 0.21875q-0.90625 0.15625 -1.484375 0.421875q-0.578125 0.265625 -0.84375 0.625q-0.265625 0.359375 -0.265625 0.8125q0 0.421875 0.140625 0.734375q0.140625 0.3125 0.375 0.515625q0.234375 0.1875 0.546875 0.28125q0.328125 0.09375 0.703125 0.09375zm14.288971 -0.578125l6.609375 0l0 1.734375l-8.671875 0l0 -15.28125l2.0625 0l0 13.546875zm10.712585 -9.0625l0 10.796875l-1.90625 0l0 -10.796875l1.90625 0zm0.421875 -3.390625q0 0.265625 -0.109375 0.515625q-0.109375 0.234375 -0.296875 0.421875q-0.1875 0.1875 -0.4375 0.296875q-0.25 0.109375 -0.515625 0.109375q-0.28125 0 -0.53125 -0.109375q-0.234375 -0.109375 -0.421875 -0.296875q-0.1875 -0.1875 -0.296875 -0.421875q-0.09375 -0.25 -0.09375 -0.515625q0 -0.28125 0.09375 -0.53125q0.109375 -0.25 0.296875 -0.4375q0.1875 -0.1875 0.421875 -0.296875q0.25 -0.109375 0.53125 -0.109375q0.265625 0 0.515625 0.109375q0.25 0.109375 0.4375 0.296875q0.1875 0.1875 0.296875 0.4375q0.109375 0.25 0.109375 0.53125zm2.366211 12.875q0 -0.25 0.09375 -0.46875q0.09375 -0.21875 0.25 -0.375q0.171875 -0.171875 0.40625 -0.265625q0.234375 -0.09375 0.515625 -0.09375q0.3125 0 0.5625 0.125q0.25 0.109375 0.40625 0.328125q0.171875 0.203125 0.25 0.46875q0.09375 0.265625 0.09375 0.59375q0 0.484375 -0.140625 1.0q-0.125 0.515625 -0.390625 1.015625q-0.25 0.515625 -0.640625 0.984375q-0.375 0.484375 -0.84375 0.890625l-0.328125 -0.3125q-0.140625 -0.125 -0.140625 -0.296875q0 -0.140625 0.15625 -0.28125q0.109375 -0.125 0.265625 -0.328125q0.171875 -0.1875 0.34375 -0.453125q0.171875 -0.25 0.3125 -0.5625q0.140625 -0.296875 0.203125 -0.65625l-0.140625 0q-0.265625 0 -0.5 -0.09375q-0.21875 -0.09375 -0.390625 -0.265625q-0.15625 -0.1875 -0.25 -0.421875q-0.09375 -0.25 -0.09375 -0.53125zm10.559692 -13.96875q0.28125 0 0.40625 0.078125q0.140625 0.0625 0.3125 0.28125l8.84375 11.515625q-0.03125 -0.28125 -0.046875 -0.546875q0 -0.265625 0 -0.5l0 -10.828125l1.8125 0l0 15.28125l-1.046875 0q-0.25 0 -0.421875 -0.078125q-0.15625 -0.09375 -0.3125 -0.296875l-8.84375 -11.5q0.015625 0.265625 0.03125 0.53125q0.015625 0.25 0.015625 0.453125l0 10.890625l-1.8125 0l0 -15.28125l1.0625 0l0 0zm22.686432 15.28125l-0.828125 0q-0.28125 0 -0.453125 -0.078125q-0.171875 -0.09375 -0.21875 -0.375l-0.21875 -1.0q-0.421875 0.390625 -0.828125 0.703125q-0.40625 0.296875 -0.859375 0.5q-0.453125 0.203125 -0.953125 0.3125q-0.5 0.109375 -1.125 0.109375q-0.625 0 -1.1875 -0.171875q-0.546875 -0.1875 -0.953125 -0.53125q-0.390625 -0.359375 -0.640625 -0.890625q-0.234375 -0.546875 -0.234375 -1.28125q0 -0.640625 0.34375 -1.21875q0.359375 -0.59375 1.140625 -1.046875q0.78125 -0.46875 2.046875 -0.765625q1.28125 -0.296875 3.109375 -0.328125l0 -0.84375q0 -1.265625 -0.546875 -1.90625q-0.53125 -0.640625 -1.59375 -0.640625q-0.6875 0 -1.171875 0.171875q-0.46875 0.171875 -0.8125 0.390625q-0.34375 0.21875 -0.59375 0.40625q-0.25 0.171875 -0.5 0.171875q-0.1875 0 -0.328125 -0.09375q-0.140625 -0.109375 -0.234375 -0.265625l-0.34375 -0.609375q0.90625 -0.859375 1.9375 -1.28125q1.03125 -0.4375 2.28125 -0.4375q0.921875 0 1.625 0.3125q0.703125 0.296875 1.171875 0.828125q0.484375 0.53125 0.71875 1.296875q0.25 0.75 0.25 1.65625l0 6.90625zm-4.921875 -1.15625q0.5 0 0.90625 -0.09375q0.421875 -0.109375 0.796875 -0.296875q0.375 -0.1875 0.703125 -0.453125q0.34375 -0.265625 0.65625 -0.609375l0 -2.25q-1.3125 0.046875 -2.234375 0.21875q-0.90625 0.15625 -1.484375 0.421875q-0.578125 0.265625 -0.84375 0.625q-0.265625 0.359375 -0.265625 0.8125q0 0.421875 0.140625 0.734375q0.140625 0.3125 0.375 0.515625q0.234375 0.1875 0.546875 0.28125q0.328125 0.09375 0.703125 0.09375zm11.078918 1.328125q-1.28125 0 -1.96875 -0.71875q-0.6875 -0.71875 -0.6875 -2.0625l0 -6.609375l-1.296875 0q-0.171875 0 -0.296875 -0.09375q-0.109375 -0.109375 -0.109375 -0.3125l0 -0.765625l1.765625 -0.21875l0.4375 -3.34375q0.03125 -0.15625 0.140625 -0.25q0.125 -0.109375 0.296875 -0.109375l0.96875 0l0 3.71875l3.0937805 0l0 1.375l-3.0937805 0l0 6.484375q0 0.6875 0.328125 1.015625q0.328125 0.328125 0.84375 0.328125q0.3125 0 0.5312805 -0.078125q0.21875 -0.078125 0.375 -0.171875q0.15625 -0.09375 0.265625 -0.171875q0.109375 -0.078125 0.203125 -0.078125q0.140625 0 0.265625 0.171875l0.546875 0.90625q-0.484375 0.453125 -1.1875 0.71875q-0.6875305 0.265625 -1.4219055 0.265625zm6.799103 -10.96875l0 10.796875l-1.90625 0l0 -10.796875l1.90625 0zm0.421875 -3.390625q0 0.265625 -0.109375 0.515625q-0.109375 0.234375 -0.296875 0.421875q-0.1875 0.1875 -0.4375 0.296875q-0.25 0.109375 -0.515625 0.109375q-0.28125 0 -0.53125 -0.109375q-0.234375 -0.109375 -0.421875 -0.296875q-0.1875 -0.1875 -0.296875 -0.421875q-0.09375 -0.25 -0.09375 -0.515625q0 -0.28125 0.09375 -0.53125q0.109375 -0.25 0.296875 -0.4375q0.1875 -0.1875 0.421875 -0.296875q0.25 -0.109375 0.53125 -0.109375q0.265625 0 0.515625 0.109375q0.25 0.109375 0.4375 0.296875q0.1875 0.1875 0.296875 0.4375q0.109375 0.25 0.109375 0.53125zm7.288086 3.21875q1.1875 0 2.140625 0.390625q0.953125 0.390625 1.625 1.125q0.671875 0.71875 1.015625 1.75q0.359375 1.03125 0.359375 2.296875q0 1.28125 -0.359375 2.3125q-0.34375 1.015625 -1.015625 1.75q-0.671875 0.71875 -1.625 1.109375q-0.953125 0.390625 -2.140625 0.390625q-1.171875 0 -2.125 -0.390625q-0.953125 -0.390625 -1.625 -1.109375q-0.671875 -0.734375 -1.046875 -1.75q-0.359375 -1.03125 -0.359375 -2.3125q0 -1.265625 0.359375 -2.296875q0.375 -1.03125 1.046875 -1.75q0.671875 -0.734375 1.625 -1.125q0.953125 -0.390625 2.125 -0.390625zm0 9.640625q1.609375 0 2.390625 -1.0625q0.796875 -1.078125 0.796875 -3.0q0 -1.9375 -0.796875 -3.015625q-0.78125 -1.078125 -2.390625 -1.078125q-0.796875 0 -1.40625 0.28125q-0.59375 0.28125 -1.0 0.8125q-0.390625 0.515625 -0.59375 1.28125q-0.1875 0.75 -0.1875 1.71875q0 0.953125 0.1875 1.71875q0.203125 0.75 0.59375 1.265625q0.40625 0.515625 1.0 0.796875q0.609375 0.28125 1.40625 0.28125zm7.4989624 1.328125l0 -10.796875l1.125 0q0.40625 0 0.515625 0.390625l0.140625 1.171875q0.703125 -0.78125 1.578125 -1.25q0.875 -0.484375 2.015625 -0.484375q0.875 0 1.546875 0.296875q0.6875 0.28125 1.140625 0.828125q0.453125 0.53125 0.6875 1.296875q0.234375 0.75 0.234375 1.671875l0 6.875l-1.890625 0l0 -6.875q0 -1.234375 -0.5625 -1.90625q-0.5625 -0.671875 -1.71875 -0.671875q-0.84375 0 -1.578125 0.40625q-0.71875 0.390625 -1.34375 1.09375l0 7.953125l-1.890625 0zm19.780212 0l-0.828125 0q-0.28125 0 -0.453125 -0.078125q-0.171875 -0.09375 -0.21875 -0.375l-0.21875 -1.0q-0.421875 0.390625 -0.828125 0.703125q-0.40625 0.296875 -0.859375 0.5q-0.453125 0.203125 -0.953125 0.3125q-0.5 0.109375 -1.125 0.109375q-0.625 0 -1.1875 -0.171875q-0.546875 -0.1875 -0.953125 -0.53125q-0.390625 -0.359375 -0.640625 -0.890625q-0.234375 -0.546875 -0.234375 -1.28125q0 -0.640625 0.34375 -1.21875q0.359375 -0.59375 1.140625 -1.046875q0.78125 -0.46875 2.046875 -0.765625q1.28125 -0.296875 3.109375 -0.328125l0 -0.84375q0 -1.265625 -0.546875 -1.90625q-0.53125 -0.640625 -1.59375 -0.640625q-0.6875 0 -1.171875 0.171875q-0.46875 0.171875 -0.8125 0.390625q-0.34375 0.21875 -0.59375 0.40625q-0.25 0.171875 -0.5 0.171875q-0.1875 0 -0.328125 -0.09375q-0.140625 -0.109375 -0.234375 -0.265625l-0.34375 -0.609375q0.90625 -0.859375 1.9375 -1.28125q1.03125 -0.4375 2.28125 -0.4375q0.921875 0 1.625 0.3125q0.703125 0.296875 1.171875 0.828125q0.484375 0.53125 0.71875 1.296875q0.25 0.75 0.25 1.65625l0 6.90625zm-4.921875 -1.15625q0.5 0 0.90625 -0.09375q0.421875 -0.109375 0.796875 -0.296875q0.375 -0.1875 0.703125 -0.453125q0.34375 -0.265625 0.65625 -0.609375l0 -2.25q-1.3125 0.046875 -2.234375 0.21875q-0.90625 0.15625 -1.484375 0.421875q-0.578125 0.265625 -0.84375 0.625q-0.265625 0.359375 -0.265625 0.8125q0 0.421875 0.140625 0.734375q0.140625 0.3125 0.375 0.515625q0.234375 0.1875 0.546875 0.28125q0.328125 0.09375 0.703125 0.09375zm9.922668 -14.546875l0 15.703125l-1.90625 0l0 -15.703125l1.90625 0zm13.701233 14.0625q0.953125 0 1.6875 -0.3125q0.75 -0.328125 1.265625 -0.90625q0.515625 -0.578125 0.78125 -1.375q0.28125 -0.796875 0.28125 -1.765625l0 -9.28125l2.0625 0l0 9.28125q0 1.328125 -0.421875 2.46875q-0.421875 1.125 -1.203125 1.953125q-0.78125 0.828125 -1.921875 1.296875q-1.125 0.46875 -2.53125 0.46875q-1.40625 0 -2.546875 -0.46875q-1.125 -0.46875 -1.921875 -1.296875q-0.78125 -0.828125 -1.203125 -1.953125q-0.421875 -1.140625 -0.421875 -2.46875l0 -9.28125l2.0625 0l0 9.28125q0 0.953125 0.265625 1.765625q0.28125 0.796875 0.796875 1.375q0.515625 0.5625 1.265625 0.890625q0.75 0.328125 1.703125 0.328125zm9.335083 1.640625l0 -10.796875l1.125 0q0.40625 0 0.515625 0.390625l0.140625 1.171875q0.703125 -0.78125 1.578125 -1.25q0.875 -0.484375 2.015625 -0.484375q0.875 0 1.546875 0.296875q0.6875 0.28125 1.140625 0.828125q0.453125 0.53125 0.6875 1.296875q0.234375 0.75 0.234375 1.671875l0 6.875l-1.890625 0l0 -6.875q0 -1.234375 -0.5625 -1.90625q-0.5625 -0.671875 -1.71875 -0.671875q-0.84375 0 -1.578125 0.40625q-0.71875 0.390625 -1.34375 1.09375l0 7.953125l-1.890625 0zm13.967712 -10.796875l0 10.796875l-1.90625 0l0 -10.796875l1.90625 0zm0.421875 -3.390625q0 0.265625 -0.109375 0.515625q-0.109375 0.234375 -0.296875 0.421875q-0.1875 0.1875 -0.4375 0.296875q-0.25 0.109375 -0.515625 0.109375q-0.28125 0 -0.53125 -0.109375q-0.234375 -0.109375 -0.421875 -0.296875q-0.1875 -0.1875 -0.296875 -0.421875q-0.09375 -0.25 -0.09375 -0.515625q0 -0.28125 0.09375 -0.53125q0.109375 -0.25 0.296875 -0.4375q0.1875 -0.1875 0.421875 -0.296875q0.25 -0.109375 0.53125 -0.109375q0.265625 0 0.515625 0.109375q0.25 0.109375 0.4375 0.296875q0.1875 0.1875 0.296875 0.4375q0.109375 0.25 0.109375 0.53125zm1.5537109 3.390625l1.5625 0q0.21875 0 0.359375 0.125q0.15625 0.109375 0.21875 0.265625l2.75 6.953125q0.140625 0.375 0.21875 0.765625q0.09375 0.390625 0.171875 0.75q0.09375 -0.359375 0.1875 -0.75q0.09375 -0.390625 0.234375 -0.765625l2.78125 -6.953125q0.0625 -0.171875 0.203125 -0.28125q0.140625 -0.109375 0.359375 -0.109375l1.484375 0l-4.40625 10.796875l-1.71875 0l-4.40625 -10.796875zm16.283203 -0.171875q0.96875 0 1.796875 0.328125q0.828125 0.3125 1.421875 0.9375q0.59375 0.609375 0.921875 1.515625q0.34375 0.890625 0.34375 2.046875q0 0.453125 -0.09375 0.609375q-0.09375 0.140625 -0.359375 0.140625l-7.1875 0q0.015625 1.015625 0.265625 1.78125q0.265625 0.75 0.703125 1.265625q0.453125 0.5 1.0625 0.75q0.625 0.25 1.390625 0.25q0.71875 0 1.234375 -0.15625q0.515625 -0.171875 0.890625 -0.359375q0.375 -0.203125 0.625 -0.359375q0.25 -0.171875 0.4375 -0.171875q0.234375 0 0.359375 0.1875l0.53125 0.6875q-0.34375 0.421875 -0.84375 0.75q-0.484375 0.3125 -1.046875 0.515625q-0.5625 0.203125 -1.15625 0.296875q-0.59375 0.109375 -1.1875 0.109375q-1.125 0 -2.0625 -0.375q-0.9375 -0.390625 -1.625 -1.109375q-0.6875 -0.734375 -1.078125 -1.8125q-0.375 -1.078125 -0.375 -2.484375q0 -1.125 0.34375 -2.109375q0.34375 -0.984375 0.984375 -1.703125q0.65625 -0.71875 1.59375 -1.125q0.9375 -0.40625 2.109375 -0.40625zm0.046875 1.390625q-1.375 0 -2.171875 0.796875q-0.78125 0.796875 -0.96875 2.203125l5.875 0q0 -0.65625 -0.1875 -1.203125q-0.171875 -0.5625 -0.53125 -0.953125q-0.34375 -0.40625 -0.859375 -0.625q-0.5 -0.21875 -1.15625 -0.21875zm6.8633423 9.578125l0 -10.796875l1.078125 0q0.3125 0 0.421875 0.125q0.125 0.109375 0.171875 0.390625l0.125 1.6875q0.546875 -1.125 1.359375 -1.765625q0.828125 -0.640625 1.921875 -0.640625q0.453125 0 0.8125 0.109375q0.359375 0.09375 0.671875 0.28125l-0.25 1.421875q-0.0625 0.265625 -0.328125 0.265625q-0.140625 0 -0.453125 -0.09375q-0.3125 -0.109375 -0.859375 -0.109375q-1.0 0 -1.671875 0.578125q-0.65625 0.5625 -1.109375 1.671875l0 6.875l-1.890625 0zm14.767029 -9.015625q-0.125 0.234375 -0.390625 0.234375q-0.15625 0 -0.359375 -0.109375q-0.203125 -0.125 -0.5 -0.265625q-0.28125 -0.15625 -0.6875 -0.28125q-0.40625 -0.125 -0.96875 -0.125q-0.484375 0 -0.875 0.125q-0.375 0.125 -0.640625 0.34375q-0.265625 0.203125 -0.421875 0.5q-0.140625 0.28125 -0.140625 0.609375q0 0.40625 0.234375 0.6875q0.25 0.28125 0.640625 0.484375q0.390625 0.203125 0.890625 0.359375q0.5 0.15625 1.03125 0.328125q0.53125 0.171875 1.03125 0.390625q0.5 0.203125 0.890625 0.53125q0.40625 0.3125 0.640625 0.78125q0.234375 0.46875 0.234375 1.109375q0 0.75 -0.265625 1.390625q-0.265625 0.625 -0.796875 1.09375q-0.515625 0.46875 -1.28125 0.734375q-0.75 0.265625 -1.734375 0.265625q-1.125 0 -2.046875 -0.359375q-0.921875 -0.375 -1.5625 -0.953125l0.453125 -0.71875q0.078125 -0.140625 0.1875 -0.21875q0.125 -0.078125 0.328125 -0.078125q0.1875 0 0.390625 0.15625q0.21875 0.140625 0.515625 0.328125q0.3125 0.171875 0.75 0.328125q0.4375 0.15625 1.078125 0.15625q0.5625 0 0.96875 -0.140625q0.421875 -0.15625 0.6875 -0.390625q0.28125 -0.25 0.40625 -0.5625q0.140625 -0.328125 0.140625 -0.6875q0 -0.453125 -0.234375 -0.75q-0.234375 -0.296875 -0.640625 -0.5q-0.390625 -0.203125 -0.90625 -0.359375q-0.5 -0.15625 -1.03125 -0.328125q-0.515625 -0.171875 -1.03125 -0.390625q-0.5 -0.21875 -0.90625 -0.546875q-0.390625 -0.328125 -0.625 -0.8125q-0.234375 -0.484375 -0.234375 -1.1875q0 -0.609375 0.25 -1.171875q0.265625 -0.578125 0.75 -1.015625q0.484375 -0.4375 1.203125 -0.6875q0.71875 -0.25 1.625 -0.25q1.078125 0 1.921875 0.34375q0.84375 0.328125 1.46875 0.90625l-0.4375 0.703125zm5.1938477 -1.78125l0 10.796875l-1.90625 0l0 -10.796875l1.90625 0zm0.421875 -3.390625q0 0.265625 -0.109375 0.515625q-0.109375 0.234375 -0.296875 0.421875q-0.1875 0.1875 -0.4375 0.296875q-0.25 0.109375 -0.515625 0.109375q-0.28125 0 -0.53125 -0.109375q-0.234375 -0.109375 -0.421875 -0.296875q-0.1875 -0.1875 -0.296875 -0.421875q-0.09375 -0.25 -0.09375 -0.515625q0 -0.28125 0.09375 -0.53125q0.109375 -0.25 0.296875 -0.4375q0.1875 -0.1875 0.421875 -0.296875q0.25 -0.109375 0.53125 -0.109375q0.265625 0 0.515625 0.109375q0.25 0.109375 0.4375 0.296875q0.1875 0.1875 0.296875 0.4375q0.109375 0.25 0.109375 0.53125zm6.194336 14.359375q-1.28125 0 -1.96875 -0.71875q-0.6875 -0.71875 -0.6875 -2.0625l0 -6.609375l-1.296875 0q-0.171875 0 -0.296875 -0.09375q-0.109375 -0.109375 -0.109375 -0.3125l0 -0.765625l1.765625 -0.21875l0.4375 -3.34375q0.03125 -0.15625 0.140625 -0.25q0.125 -0.109375 0.296875 -0.109375l0.96875 0l0 3.71875l3.09375 0l0 1.375l-3.09375 0l0 6.484375q0 0.6875 0.328125 1.015625q0.328125 0.328125 0.84375 0.328125q0.3125 0 0.53125 -0.078125q0.21875 -0.078125 0.375 -0.171875q0.15625 -0.09375 0.265625 -0.171875q0.109375 -0.078125 0.203125 -0.078125q0.140625 0 0.265625 0.171875l0.546875 0.90625q-0.484375 0.453125 -1.1875 0.71875q-0.6875 0.265625 -1.421875 0.265625zm7.8459473 3.015625q-0.09375 0.21875 -0.234375 0.34375q-0.140625 0.125 -0.4375 0.125l-1.40625 0l1.96875 -4.28125l-4.453125 -10.171875l1.640625 0q0.234375 0 0.375 0.125q0.140625 0.109375 0.203125 0.265625l2.890625 6.796875q0.09375 0.234375 0.15625 0.46875q0.078125 0.234375 0.140625 0.484375q0.0625 -0.25 0.140625 -0.484375q0.078125 -0.234375 0.171875 -0.46875l2.8125 -6.796875q0.0625 -0.171875 0.203125 -0.28125q0.15625 -0.109375 0.34375 -0.109375l1.515625 0l-6.03125 13.984375zm16.23938 -14.15625q1.1875 0 2.140625 0.390625q0.953125 0.390625 1.625 1.125q0.671875 0.71875 1.015625 1.75q0.359375 1.03125 0.359375 2.296875q0 1.28125 -0.359375 2.3125q-0.34375 1.015625 -1.015625 1.75q-0.671875 0.71875 -1.625 1.109375q-0.953125 0.390625 -2.140625 0.390625q-1.171875 0 -2.125 -0.390625q-0.953125 -0.390625 -1.625 -1.109375q-0.671875 -0.734375 -1.046875 -1.75q-0.359375 -1.03125 -0.359375 -2.3125q0 -1.265625 0.359375 -2.296875q0.375 -1.03125 1.046875 -1.75q0.671875 -0.734375 1.625 -1.125q0.953125 -0.390625 2.125 -0.390625zm0 9.640625q1.609375 0 2.390625 -1.0625q0.796875 -1.078125 0.796875 -3.0q0 -1.9375 -0.796875 -3.015625q-0.78125 -1.078125 -2.390625 -1.078125q-0.796875 0 -1.40625 0.28125q-0.59375 0.28125 -1.0 0.8125q-0.390625 0.515625 -0.59375 1.28125q-0.1875 0.75 -0.1875 1.71875q0 0.953125 0.1875 1.71875q0.203125 0.75 0.59375 1.265625q0.40625 0.515625 1.0 0.796875q0.609375 0.28125 1.40625 0.28125zm7.9208374 1.328125l0 -9.1875l-1.1875 -0.140625q-0.234375 -0.046875 -0.375 -0.15625q-0.140625 -0.109375 -0.140625 -0.328125l0 -0.78125l1.703125 0l0 -1.046875q0 -0.921875 0.25 -1.640625q0.265625 -0.71875 0.75 -1.21875q0.484375 -0.5 1.171875 -0.75q0.6875 -0.25 1.53125 -0.25q0.734375 0 1.34375 0.203125l-0.03125 0.953125q-0.015625 0.21875 -0.1875 0.265625q-0.171875 0.03125 -0.484375 0.03125l-0.328125 0q-0.484375 0 -0.890625 0.140625q-0.390625 0.125 -0.6875 0.40625q-0.28125 0.28125 -0.4375 0.75q-0.15625 0.46875 -0.15625 1.171875l0 0.984375l3.125 0l0 1.375l-3.0625 0l0 9.21875l-1.90625 0zm19.007019 -12.890625q-0.09375 0.15625 -0.203125 0.234375q-0.109375 0.078125 -0.28125 0.078125q-0.1875 0 -0.421875 -0.171875q-0.234375 -0.1875 -0.609375 -0.40625q-0.359375 -0.21875 -0.890625 -0.390625q-0.515625 -0.1875 -1.25 -0.1875q-0.6875 0 -1.21875 0.1875q-0.53125 0.1875 -0.890625 0.515625q-0.359375 0.3125 -0.546875 0.75q-0.171875 0.421875 -0.171875 0.921875q0 0.640625 0.3125 1.0625q0.3125 0.421875 0.828125 0.71875q0.515625 0.296875 1.171875 0.515625q0.65625 0.21875 1.34375 0.453125q0.6875 0.234375 1.34375 0.53125q0.65625 0.296875 1.171875 0.75q0.515625 0.4375 0.828125 1.09375q0.328125 0.640625 0.328125 1.59375q0 1.0 -0.34375 1.890625q-0.34375 0.875 -1.0 1.53125q-0.65625 0.640625 -1.609375 1.015625q-0.953125 0.375 -2.171875 0.375q-1.484375 0 -2.703125 -0.53125q-1.21875 -0.546875 -2.078125 -1.46875l0.59375 -0.96875q0.078125 -0.125 0.203125 -0.203125q0.125 -0.078125 0.28125 -0.078125q0.21875 0 0.5 0.234375q0.296875 0.234375 0.71875 0.53125q0.4375 0.28125 1.046875 0.53125q0.609375 0.234375 1.5 0.234375q0.734375 0 1.3125 -0.203125q0.578125 -0.203125 0.96875 -0.5625q0.40625 -0.375 0.609375 -0.890625q0.21875 -0.515625 0.21875 -1.140625q0 -0.6875 -0.3125 -1.125q-0.3125 -0.453125 -0.828125 -0.75q-0.5 -0.296875 -1.15625 -0.5q-0.65625 -0.21875 -1.34375 -0.4375q-0.6875 -0.21875 -1.34375 -0.5q-0.65625 -0.28125 -1.171875 -0.734375q-0.515625 -0.46875 -0.828125 -1.15625q-0.3125 -0.6875 -0.3125 -1.703125q0 -0.8125 0.3125 -1.5625q0.3125 -0.765625 0.90625 -1.34375q0.609375 -0.59375 1.484375 -0.9375q0.875 -0.359375 2.015625 -0.359375q1.28125 0 2.328125 0.40625q1.0625 0.40625 1.859375 1.171875l-0.5 0.984375zm5.288208 2.09375l0 10.796875l-1.90625 0l0 -10.796875l1.90625 0zm0.421875 -3.390625q0 0.265625 -0.109375 0.515625q-0.109375 0.234375 -0.296875 0.421875q-0.1875 0.1875 -0.4375 0.296875q-0.25 0.109375 -0.515625 0.109375q-0.28125 0 -0.53125 -0.109375q-0.234375 -0.109375 -0.421875 -0.296875q-0.1875 -0.1875 -0.296875 -0.421875q-0.09375 -0.25 -0.09375 -0.515625q0 -0.28125 0.09375 -0.53125q0.109375 -0.25 0.296875 -0.4375q0.1875 -0.1875 0.421875 -0.296875q0.25 -0.109375 0.53125 -0.109375q0.265625 0 0.515625 0.109375q0.25 0.109375 0.4375 0.296875q0.1875 0.1875 0.296875 0.4375q0.109375 0.25 0.109375 0.53125zm2.928711 14.1875l0 -10.796875l1.125 0q0.40625 0 0.515625 0.390625l0.140625 1.171875q0.703125 -0.78125 1.578125 -1.25q0.875 -0.484375 2.015625 -0.484375q0.875 0 1.546875 0.296875q0.6875 0.28125 1.140625 0.828125q0.453125 0.53125 0.6875 1.296875q0.234375 0.75 0.234375 1.671875l0 6.875l-1.890625 0l0 -6.875q0 -1.234375 -0.5625 -1.90625q-0.5625 -0.671875 -1.71875 -0.671875q-0.84375 0 -1.578125 0.40625q-0.71875 0.390625 -1.34375 1.09375l0 7.953125l-1.890625 0zm15.483337 -10.984375q0.703125 0 1.3125 0.15625q0.625 0.15625 1.125 0.453125l2.9375 0l0 0.703125q0 0.34375 -0.453125 0.453125l-1.21875 0.171875q0.359375 0.6875 0.359375 1.546875q0 0.78125 -0.3125 1.4375q-0.296875 0.640625 -0.84375 1.09375q-0.53125 0.453125 -1.28125 0.703125q-0.734375 0.25 -1.625 0.25q-0.75 0 -1.421875 -0.1875q-0.34375 0.21875 -0.515625 0.46875q-0.171875 0.234375 -0.171875 0.46875q0 0.390625 0.296875 0.59375q0.3125 0.1875 0.828125 0.28125q0.515625 0.078125 1.15625 0.109375q0.65625 0.015625 1.328125 0.0625q0.6875 0.046875 1.328125 0.171875q0.65625 0.109375 1.15625 0.375q0.515625 0.265625 0.828125 0.734375q0.3125 0.46875 0.3125 1.21875q0 0.6875 -0.34375 1.328125q-0.34375 0.65625 -1.0 1.15625q-0.65625 0.515625 -1.59375 0.8125q-0.9375 0.3125 -2.125 0.3125q-1.171875 0 -2.0625 -0.234375q-0.890625 -0.234375 -1.484375 -0.625q-0.578125 -0.390625 -0.875 -0.921875q-0.296875 -0.515625 -0.296875 -1.078125q0 -0.796875 0.5 -1.359375q0.515625 -0.5625 1.40625 -0.890625q-0.46875 -0.203125 -0.75 -0.5625q-0.265625 -0.359375 -0.265625 -0.953125q0 -0.234375 0.078125 -0.484375q0.09375 -0.25 0.265625 -0.5q0.1875 -0.25 0.4375 -0.46875q0.265625 -0.234375 0.59375 -0.390625q-0.796875 -0.453125 -1.25 -1.1875q-0.453125 -0.75 -0.453125 -1.734375q0 -0.796875 0.296875 -1.4375q0.3125 -0.65625 0.859375 -1.109375q0.546875 -0.453125 1.296875 -0.6875q0.75 -0.25 1.640625 -0.25zm3.375 11.578125q0 -0.40625 -0.234375 -0.65625q-0.21875 -0.25 -0.609375 -0.375q-0.375 -0.140625 -0.875 -0.203125q-0.5 -0.0625 -1.0625 -0.078125q-0.546875 -0.03125 -1.125 -0.0625q-0.578125 -0.046875 -1.09375 -0.125q-0.609375 0.28125 -0.984375 0.703125q-0.375 0.421875 -0.375 1.0q0 0.359375 0.171875 0.671875q0.1875 0.3125 0.578125 0.53125q0.390625 0.234375 0.96875 0.359375q0.578125 0.140625 1.375 0.140625q0.765625 0 1.359375 -0.140625q0.609375 -0.125 1.03125 -0.390625q0.421875 -0.25 0.640625 -0.609375q0.234375 -0.34375 0.234375 -0.765625zm-3.375 -5.875q0.578125 0 1.015625 -0.15625q0.453125 -0.15625 0.75 -0.4375q0.296875 -0.296875 0.4375 -0.6875q0.15625 -0.40625 0.15625 -0.890625q0 -1.0 -0.609375 -1.578125q-0.59375 -0.59375 -1.75 -0.59375q-1.140625 0 -1.75 0.59375q-0.59375 0.578125 -0.59375 1.578125q0 0.484375 0.15625 0.890625q0.15625 0.390625 0.453125 0.6875q0.296875 0.28125 0.734375 0.4375q0.4375 0.15625 1.0 0.15625zm15.195496 5.28125l-0.828125 0q-0.28125 0 -0.453125 -0.078125q-0.171875 -0.09375 -0.21875 -0.375l-0.21875 -1.0q-0.421875 0.390625 -0.828125 0.703125q-0.40625 0.296875 -0.859375 0.5q-0.453125 0.203125 -0.953125 0.3125q-0.5 0.109375 -1.125 0.109375q-0.625 0 -1.1875 -0.171875q-0.546875 -0.1875 -0.953125 -0.53125q-0.390625 -0.359375 -0.640625 -0.890625q-0.234375 -0.546875 -0.234375 -1.28125q0 -0.640625 0.34375 -1.21875q0.359375 -0.59375 1.140625 -1.046875q0.78125 -0.46875 2.046875 -0.765625q1.28125 -0.296875 3.109375 -0.328125l0 -0.84375q0 -1.265625 -0.546875 -1.90625q-0.53125 -0.640625 -1.59375 -0.640625q-0.6875 0 -1.171875 0.171875q-0.46875 0.171875 -0.8125 0.390625q-0.34375 0.21875 -0.59375 0.40625q-0.25 0.171875 -0.5 0.171875q-0.1875 0 -0.328125 -0.09375q-0.140625 -0.109375 -0.234375 -0.265625l-0.34375 -0.609375q0.90625 -0.859375 1.9375 -1.28125q1.03125 -0.4375 2.28125 -0.4375q0.921875 0 1.625 0.3125q0.703125 0.296875 1.171875 0.828125q0.484375 0.53125 0.71875 1.296875q0.25 0.75 0.25 1.65625l0 6.90625zm-4.921875 -1.15625q0.5 0 0.90625 -0.09375q0.421875 -0.109375 0.796875 -0.296875q0.375 -0.1875 0.703125 -0.453125q0.34375 -0.265625 0.65625 -0.609375l0 -2.25q-1.3125 0.046875 -2.234375 0.21875q-0.90625 0.15625 -1.484375 0.421875q-0.578125 0.265625 -0.84375 0.625q-0.265625 0.359375 -0.265625 0.8125q0 0.421875 0.140625 0.734375q0.140625 0.3125 0.375 0.515625q0.234375 0.1875 0.546875 0.28125q0.328125 0.09375 0.703125 0.09375zm7.8132935 4.8125l0 -14.453125l1.125 0q0.40625 0 0.515625 0.390625l0.15625 1.28125q0.6875 -0.84375 1.578125 -1.359375q0.890625 -0.515625 2.0625 -0.515625q0.921875 0 1.671875 0.359375q0.765625 0.359375 1.296875 1.0625q0.53125 0.6875 0.8125 1.734375q0.296875 1.03125 0.296875 2.375q0 1.1875 -0.328125 2.21875q-0.3125 1.03125 -0.90625 1.78125q-0.59375 0.75 -1.46875 1.1875q-0.875 0.4375 -1.953125 0.4375q-1.0 0 -1.71875 -0.328125q-0.703125 -0.34375 -1.25 -0.953125l0 4.78125l-1.890625 0zm4.796875 -13.109375q-0.921875 0 -1.625 0.421875q-0.6875 0.421875 -1.28125 1.203125l0 5.21875q0.53125 0.71875 1.140625 1.0q0.625 0.28125 1.40625 0.28125q1.5 0 2.3125 -1.0625q0.8125 -1.078125 0.8125 -3.078125q0 -1.0625 -0.1875 -1.8125q-0.1875 -0.765625 -0.546875 -1.25q-0.34375 -0.484375 -0.859375 -0.703125q-0.515625 -0.21875 -1.171875 -0.21875zm11.33551 -1.515625q1.1875 0 2.140625 0.390625q0.953125 0.390625 1.625 1.125q0.671875 0.71875 1.015625 1.75q0.359375 1.03125 0.359375 2.296875q0 1.28125 -0.359375 2.3125q-0.34375 1.015625 -1.015625 1.75q-0.671875 0.71875 -1.625 1.109375q-0.953125 0.390625 -2.140625 0.390625q-1.171875 0 -2.125 -0.390625q-0.953125 -0.390625 -1.625 -1.109375q-0.671875 -0.734375 -1.046875 -1.75q-0.359375 -1.03125 -0.359375 -2.3125q0 -1.265625 0.359375 -2.296875q0.375 -1.03125 1.046875 -1.75q0.671875 -0.734375 1.625 -1.125q0.953125 -0.390625 2.125 -0.390625zm0 9.640625q1.609375 0 2.390625 -1.0625q0.796875 -1.078125 0.796875 -3.0q0 -1.9375 -0.796875 -3.015625q-0.78125 -1.078125 -2.390625 -1.078125q-0.796875 0 -1.40625 0.28125q-0.59375 0.28125 -1.0 0.8125q-0.390625 0.515625 -0.59375 1.28125q-0.1875 0.75 -0.1875 1.71875q0 0.953125 0.1875 1.71875q0.203125 0.75 0.59375 1.265625q0.40625 0.515625 1.0 0.796875q0.609375 0.28125 1.40625 0.28125zm7.4989624 1.328125l0 -10.796875l1.078125 0q0.3125 0 0.421875 0.125q0.125 0.109375 0.171875 0.390625l0.125 1.6875q0.546875 -1.125 1.359375 -1.765625q0.828125 -0.640625 1.921875 -0.640625q0.453125 0 0.8125 0.109375q0.359375 0.09375 0.671875 0.28125l-0.25 1.421875q-0.0625 0.265625 -0.328125 0.265625q-0.140625 0 -0.453125 -0.09375q-0.3125 -0.109375 -0.859375 -0.109375q-1.0 0 -1.671875 0.578125q-0.65625 0.5625 -1.109375 1.671875l0 6.875l-1.890625 0zm12.860779 -10.96875q0.96875 0 1.796875 0.328125q0.828125 0.3125 1.421875 0.9375q0.59375 0.609375 0.921875 1.515625q0.34375 0.890625 0.34375 2.046875q0 0.453125 -0.09375 0.609375q-0.09375 0.140625 -0.359375 0.140625l-7.1875 0q0.015625 1.015625 0.265625 1.78125q0.265625 0.75 0.703125 1.265625q0.453125 0.5 1.0625 0.75q0.625 0.25 1.390625 0.25q0.71875 0 1.234375 -0.15625q0.515625 -0.171875 0.890625 -0.359375q0.375 -0.203125 0.625 -0.359375q0.25 -0.171875 0.4375 -0.171875q0.234375 0 0.359375 0.1875l0.53125 0.6875q-0.34375 0.421875 -0.84375 0.75q-0.484375 0.3125 -1.046875 0.515625q-0.5625 0.203125 -1.15625 0.296875q-0.59375 0.109375 -1.1875 0.109375q-1.125 0 -2.0625 -0.375q-0.9375 -0.390625 -1.625 -1.109375q-0.6875 -0.734375 -1.078125 -1.8125q-0.375 -1.078125 -0.375 -2.484375q0 -1.125 0.34375 -2.109375q0.34375 -0.984375 0.984375 -1.703125q0.65625 -0.71875 1.59375 -1.125q0.9375 -0.40625 2.109375 -0.40625zm0.046875 1.390625q-1.375 0 -2.171875 0.796875q-0.78125 0.796875 -0.96875 2.203125l5.875 0q0 -0.65625 -0.1875 -1.203125q-0.171875 -0.5625 -0.53125 -0.953125q-0.34375 -0.40625 -0.859375 -0.625q-0.5 -0.21875 -1.15625 -0.21875z" fill-rule="nonzero"/><path fill="#595959" d="m99.85105 388.59286l-2.078125 0l0 -6.953125l-8.234375 0l0 6.953125l-2.078125 0l0 -15.28125l2.078125 0l0 6.8125l8.234375 0l0 -6.8125l2.078125 0l0 15.28125zm11.358322 0l-0.828125 0q-0.28125 0 -0.453125 -0.078125q-0.171875 -0.09375 -0.21875 -0.375l-0.21875 -1.0q-0.421875 0.390625 -0.828125 0.703125q-0.40625 0.296875 -0.859375 0.5q-0.453125 0.203125 -0.953125 0.3125q-0.5 0.109375 -1.125 0.109375q-0.625 0 -1.1875 -0.171875q-0.546875 -0.1875 -0.953125 -0.53125q-0.390625 -0.359375 -0.640625 -0.890625q-0.234375 -0.546875 -0.234375 -1.28125q0 -0.640625 0.34375 -1.21875q0.359375 -0.59375 1.140625 -1.046875q0.78125 -0.46875 2.046875 -0.765625q1.28125 -0.296875 3.109375 -0.328125l0 -0.84375q0 -1.265625 -0.546875 -1.90625q-0.53125 -0.640625 -1.59375 -0.640625q-0.6875 0 -1.171875 0.171875q-0.46875 0.171875 -0.8125 0.390625q-0.34375 0.21875 -0.59375 0.40625q-0.25 0.171875 -0.5 0.171875q-0.1875 0 -0.328125 -0.09375q-0.140625 -0.109375 -0.234375 -0.265625l-0.34375 -0.609375q0.90625 -0.859375 1.9375 -1.28125q1.03125 -0.4375 2.28125 -0.4375q0.921875 0 1.625 0.3125q0.703125 0.296875 1.171875 0.828125q0.484375 0.53125 0.71875 1.296875q0.25 0.75 0.25 1.65625l0 6.90625zm-4.921875 -1.15625q0.5 0 0.90625 -0.09375q0.421875 -0.109375 0.796875 -0.296875q0.375 -0.1875 0.703125 -0.453125q0.34375 -0.265625 0.65625 -0.609375l0 -2.25q-1.3125 0.046875 -2.234375 0.21875q-0.90625 0.15625 -1.484375 0.421875q-0.578125 0.265625 -0.84375 0.625q-0.265625 0.359375 -0.265625 0.8125q0 0.421875 0.140625 0.734375q0.140625 0.3125 0.375 0.515625q0.234375 0.1875 0.546875 0.28125q0.328125 0.09375 0.703125 0.09375zm9.922653 -9.640625l0 10.796875l-1.90625 0l0 -10.796875l1.90625 0zm0.421875 -3.390625q0 0.265625 -0.109375 0.515625q-0.109375 0.234375 -0.296875 0.421875q-0.1875 0.1875 -0.4375 0.296875q-0.25 0.109375 -0.515625 0.109375q-0.28125 0 -0.53125 -0.109375q-0.234375 -0.109375 -0.421875 -0.296875q-0.1875 -0.1875 -0.296875 -0.421875q-0.09375 -0.25 -0.09375 -0.515625q0 -0.28125 0.09375 -0.53125q0.109375 -0.25 0.296875 -0.4375q0.1875 -0.1875 0.421875 -0.296875q0.25 -0.109375 0.53125 -0.109375q0.265625 0 0.515625 0.109375q0.25 0.109375 0.4375 0.296875q0.1875 0.1875 0.296875 0.4375q0.109375 0.25 0.109375 0.53125zm10.459961 4.203125q0 0.1875 -0.078125 0.375q-0.0625 0.1875 -0.1875 0.34375l-5.84375 7.78125l5.90625 0l0 1.484375l-8.140625 0l0 -0.796875q0 -0.125 0.0625 -0.3125q0.078125 -0.1875 0.203125 -0.359375l5.875 -7.84375l-5.8125 0l0 -1.484375l8.015625 0l0 0.8125zm2.3222733 9.984375l0 -15.703125l1.890625 0l0 6.34375q0.6875 -0.734375 1.53125 -1.171875q0.84375 -0.4375 1.953125 -0.4375q0.875 0 1.546875 0.296875q0.6875 0.28125 1.140625 0.828125q0.453125 0.53125 0.6875 1.296875q0.234375 0.75 0.234375 1.671875l0 6.875l-1.890625 0l0 -6.875q0 -1.234375 -0.5625 -1.90625q-0.5625 -0.671875 -1.71875 -0.671875q-0.84375 0 -1.578125 0.40625q-0.71875 0.390625 -1.34375 1.09375l0 7.953125l-1.890625 0zm19.780228 0l-0.828125 0q-0.28125 0 -0.453125 -0.078125q-0.171875 -0.09375 -0.21875 -0.375l-0.21875 -1.0q-0.421875 0.390625 -0.828125 0.703125q-0.40625 0.296875 -0.859375 0.5q-0.453125 0.203125 -0.953125 0.3125q-0.5 0.109375 -1.125 0.109375q-0.625 0 -1.1875 -0.171875q-0.546875 -0.1875 -0.953125 -0.53125q-0.390625 -0.359375 -0.640625 -0.890625q-0.234375 -0.546875 -0.234375 -1.28125q0 -0.640625 0.34375 -1.21875q0.359375 -0.59375 1.140625 -1.046875q0.78125 -0.46875 2.046875 -0.765625q1.28125 -0.296875 3.109375 -0.328125l0 -0.84375q0 -1.265625 -0.546875 -1.90625q-0.53125 -0.640625 -1.59375 -0.640625q-0.6875 0 -1.171875 0.171875q-0.46875 0.171875 -0.8125 0.390625q-0.34375 0.21875 -0.59375 0.40625q-0.25 0.171875 -0.5 0.171875q-0.1875 0 -0.328125 -0.09375q-0.140625 -0.109375 -0.234375 -0.265625l-0.34375 -0.609375q0.90625 -0.859375 1.9375 -1.28125q1.03125 -0.4375 2.28125 -0.4375q0.921875 0 1.625 0.3125q0.703125 0.296875 1.171875 0.828125q0.484375 0.53125 0.71875 1.296875q0.25 0.75 0.25 1.65625l0 6.90625zm-4.921875 -1.15625q0.5 0 0.90625 -0.09375q0.421875 -0.109375 0.796875 -0.296875q0.375 -0.1875 0.703125 -0.453125q0.34375 -0.265625 0.65625 -0.609375l0 -2.25q-1.3125 0.046875 -2.234375 0.21875q-0.90625 0.15625 -1.484375 0.421875q-0.578125 0.265625 -0.84375 0.625q-0.265625 0.359375 -0.265625 0.8125q0 0.421875 0.140625 0.734375q0.140625 0.3125 0.375 0.515625q0.234375 0.1875 0.546875 0.28125q0.328125 0.09375 0.703125 0.09375zm12.172653 -9.8125q1.1875 0 2.140625 0.390625q0.953125 0.390625 1.625 1.125q0.671875 0.71875 1.015625 1.75q0.359375 1.03125 0.359375 2.296875q0 1.28125 -0.359375 2.3125q-0.34375 1.015625 -1.015625 1.75q-0.671875 0.71875 -1.625 1.109375q-0.953125 0.390625 -2.140625 0.390625q-1.171875 0 -2.125 -0.390625q-0.953125 -0.390625 -1.625 -1.109375q-0.671875 -0.734375 -1.046875 -1.75q-0.359375 -1.03125 -0.359375 -2.3125q0 -1.265625 0.359375 -2.296875q0.375 -1.03125 1.046875 -1.75q0.671875 -0.734375 1.625 -1.125q0.953125 -0.390625 2.125 -0.390625zm0 9.640625q1.609375 0 2.390625 -1.0625q0.796875 -1.078125 0.796875 -3.0q0 -1.9375 -0.796875 -3.015625q-0.78125 -1.078125 -2.390625 -1.078125q-0.796875 0 -1.40625 0.28125q-0.59375 0.28125 -1.0 0.8125q-0.390625 0.515625 -0.59375 1.28125q-0.1875 0.75 -0.1875 1.71875q0 0.953125 0.1875 1.71875q0.203125 0.75 0.59375 1.265625q0.40625 0.515625 1.0 0.796875q0.609375 0.28125 1.40625 0.28125zm17.787155 -4.75l0 6.078125l-2.046875 0l0 -6.078125l-5.609375 -9.203125l1.8125 0q0.28125 0 0.4375 0.140625q0.171875 0.140625 0.28125 0.34375l3.5 5.9375q0.21875 0.375 0.359375 0.703125q0.140625 0.328125 0.265625 0.65625q0.109375 -0.34375 0.25 -0.671875q0.140625 -0.328125 0.359375 -0.6875l3.484375 -5.9375q0.09375 -0.171875 0.25 -0.328125q0.171875 -0.15625 0.4375 -0.15625l1.828125 0l-5.609375 9.203125zm13.799973 6.078125l-0.828125 0q-0.28125 0 -0.453125 -0.078125q-0.171875 -0.09375 -0.21875 -0.375l-0.21875 -1.0q-0.421875 0.390625 -0.828125 0.703125q-0.40625 0.296875 -0.859375 0.5q-0.453125 0.203125 -0.953125 0.3125q-0.5 0.109375 -1.125 0.109375q-0.625 0 -1.1875 -0.171875q-0.546875 -0.1875 -0.953125 -0.53125q-0.390625 -0.359375 -0.640625 -0.890625q-0.234375 -0.546875 -0.234375 -1.28125q0 -0.640625 0.34375 -1.21875q0.359375 -0.59375 1.140625 -1.046875q0.78125 -0.46875 2.046875 -0.765625q1.28125 -0.296875 3.109375 -0.328125l0 -0.84375q0 -1.265625 -0.546875 -1.90625q-0.53125 -0.640625 -1.59375 -0.640625q-0.6875 0 -1.171875 0.171875q-0.46875 0.171875 -0.8125 0.390625q-0.34375 0.21875 -0.59375 0.40625q-0.25 0.171875 -0.5 0.171875q-0.1875 0 -0.328125 -0.09375q-0.140625 -0.109375 -0.234375 -0.265625l-0.34375 -0.609375q0.90625 -0.859375 1.9375 -1.28125q1.03125 -0.4375 2.28125 -0.4375q0.921875 0 1.625 0.3125q0.703125 0.296875 1.171875 0.828125q0.484375 0.53125 0.71875 1.296875q0.25 0.75 0.25 1.65625l0 6.90625zm-4.921875 -1.15625q0.5 0 0.90625 -0.09375q0.421875 -0.109375 0.796875 -0.296875q0.375 -0.1875 0.703125 -0.453125q0.34375 -0.265625 0.65625 -0.609375l0 -2.25q-1.3125 0.046875 -2.234375 0.21875q-0.90625 0.15625 -1.484375 0.421875q-0.578125 0.265625 -0.84375 0.625q-0.265625 0.359375 -0.265625 0.8125q0 0.421875 0.140625 0.734375q0.140625 0.3125 0.375 0.515625q0.234375 0.1875 0.546875 0.28125q0.328125 0.09375 0.703125 0.09375zm7.813278 1.15625l0 -10.796875l1.125 0q0.40625 0 0.515625 0.390625l0.140625 1.171875q0.703125 -0.78125 1.578125 -1.25q0.875 -0.484375 2.015625 -0.484375q0.875 0 1.546875 0.296875q0.6875 0.28125 1.140625 0.828125q0.453125 0.53125 0.6875 1.296875q0.234375 0.75 0.234375 1.671875l0 6.875l-1.890625 0l0 -6.875q0 -1.234375 -0.5625 -1.90625q-0.5625 -0.671875 -1.71875 -0.671875q-0.84375 0 -1.578125 0.40625q-0.71875 0.390625 -1.34375 1.09375l0 7.953125l-1.890625 0zm15.483353 -10.984375q0.703125 0 1.3125 0.15625q0.625 0.15625 1.125 0.453125l2.9375 0l0 0.703125q0 0.34375 -0.453125 0.453125l-1.21875 0.171875q0.359375 0.6875 0.359375 1.546875q0 0.78125 -0.3125 1.4375q-0.296875 0.640625 -0.84375 1.09375q-0.53125 0.453125 -1.28125 0.703125q-0.734375 0.25 -1.625 0.25q-0.75 0 -1.421875 -0.1875q-0.34375 0.21875 -0.515625 0.46875q-0.171875 0.234375 -0.171875 0.46875q0 0.390625 0.296875 0.59375q0.3125 0.1875 0.828125 0.28125q0.515625 0.078125 1.15625 0.109375q0.65625 0.015625 1.328125 0.0625q0.6875 0.046875 1.328125 0.171875q0.65625 0.109375 1.15625 0.375q0.515625 0.265625 0.828125 0.734375q0.3125 0.46875 0.3125 1.21875q0 0.6875 -0.34375 1.328125q-0.34375 0.65625 -1.0 1.15625q-0.65625 0.515625 -1.59375 0.8125q-0.9375 0.3125 -2.125 0.3125q-1.171875 0 -2.0625 -0.234375q-0.890625 -0.234375 -1.484375 -0.625q-0.578125 -0.390625 -0.875 -0.921875q-0.296875 -0.515625 -0.296875 -1.078125q0 -0.796875 0.5 -1.359375q0.515625 -0.5625 1.40625 -0.890625q-0.46875 -0.203125 -0.75 -0.5625q-0.265625 -0.359375 -0.265625 -0.953125q0 -0.234375 0.078125 -0.484375q0.09375 -0.25 0.265625 -0.5q0.1875 -0.25 0.4375 -0.46875q0.265625 -0.234375 0.59375 -0.390625q-0.796875 -0.453125 -1.25 -1.1875q-0.453125 -0.75 -0.453125 -1.734375q0 -0.796875 0.296875 -1.4375q0.3125 -0.65625 0.859375 -1.109375q0.546875 -0.453125 1.296875 -0.6875q0.75 -0.25 1.640625 -0.25zm3.375 11.578125q0 -0.40625 -0.234375 -0.65625q-0.21875 -0.25 -0.609375 -0.375q-0.375 -0.140625 -0.875 -0.203125q-0.5 -0.0625 -1.0625 -0.078125q-0.546875 -0.03125 -1.125 -0.0625q-0.578125 -0.046875 -1.09375 -0.125q-0.609375 0.28125 -0.984375 0.703125q-0.375 0.421875 -0.375 1.0q0 0.359375 0.171875 0.671875q0.1875 0.3125 0.578125 0.53125q0.390625 0.234375 0.96875 0.359375q0.578125 0.140625 1.375 0.140625q0.765625 0 1.359375 -0.140625q0.609375 -0.125 1.03125 -0.390625q0.421875 -0.25 0.640625 -0.609375q0.234375 -0.34375 0.234375 -0.765625zm-3.375 -5.875q0.578125 0 1.015625 -0.15625q0.453125 -0.15625 0.75 -0.4375q0.296875 -0.296875 0.4375 -0.6875q0.15625 -0.40625 0.15625 -0.890625q0 -1.0 -0.609375 -1.578125q-0.59375 -0.59375 -1.75 -0.59375q-1.140625 0 -1.75 0.59375q-0.59375 0.578125 -0.59375 1.578125q0 0.484375 0.15625 0.890625q0.15625 0.390625 0.453125 0.6875q0.296875 0.28125 0.734375 0.4375q0.4375 0.15625 1.0 0.15625zm6.71109 3.96875q0 -0.25 0.09375 -0.46875q0.09375 -0.21875 0.25 -0.375q0.171875 -0.171875 0.40625 -0.265625q0.234375 -0.09375 0.515625 -0.09375q0.3125 0 0.5625 0.125q0.25 0.109375 0.40625 0.328125q0.171875 0.203125 0.25 0.46875q0.09375 0.265625 0.09375 0.59375q0 0.484375 -0.140625 1.0q-0.125 0.515625 -0.390625 1.015625q-0.25 0.515625 -0.640625 0.984375q-0.375 0.484375 -0.84375 0.890625l-0.328125 -0.3125q-0.140625 -0.125 -0.140625 -0.296875q0 -0.140625 0.15625 -0.28125q0.109375 -0.125 0.265625 -0.328125q0.171875 -0.1875 0.34375 -0.453125q0.171875 -0.25 0.3125 -0.5625q0.140625 -0.296875 0.203125 -0.65625l-0.140625 0q-0.265625 0 -0.5 -0.09375q-0.21875 -0.09375 -0.390625 -0.265625q-0.15625 -0.1875 -0.25 -0.421875q-0.09375 -0.25 -0.09375 -0.53125zm11.762833 -4.40625l0 5.71875l-2.0625 0l0 -15.28125l4.515625 0q1.453125 0 2.515625 0.34375q1.078125 0.328125 1.78125 0.953125q0.703125 0.609375 1.046875 1.484375q0.359375 0.875 0.359375 1.953125q0 1.0625 -0.375 1.953125q-0.375 0.890625 -1.09375 1.53125q-0.71875 0.625 -1.796875 0.984375q-1.0625 0.359375 -2.4375 0.359375l-2.453125 0zm0 -1.640625l2.453125 0q0.890625 0 1.5625 -0.234375q0.671875 -0.234375 1.125 -0.65625q0.46875 -0.421875 0.703125 -1.0q0.234375 -0.59375 0.234375 -1.296875q0 -1.453125 -0.90625 -2.28125q-0.890625 -0.828125 -2.71875 -0.828125l-2.453125 0l0 6.296875zm12.109512 -3.4375l0 6.890625q0 1.21875 0.5625 1.890625q0.5625 0.671875 1.703125 0.671875q0.828125 0 1.5625 -0.390625q0.75 -0.390625 1.359375 -1.109375l0 -7.953125l1.90625 0l0 10.796875l-1.140625 0q-0.40625 0 -0.5 -0.390625l-0.15625 -1.171875q-0.703125 0.78125 -1.578125 1.265625q-0.875 0.46875 -2.0 0.46875q-0.890625 0 -1.578125 -0.296875q-0.671875 -0.296875 -1.125 -0.828125q-0.453125 -0.53125 -0.6875 -1.28125q-0.234375 -0.765625 -0.234375 -1.671875l0 -6.890625l1.90625 0zm10.217728 10.796875l0 -10.796875l1.078125 0q0.3125 0 0.421875 0.125q0.125 0.109375 0.171875 0.390625l0.125 1.6875q0.546875 -1.125 1.359375 -1.765625q0.828125 -0.640625 1.921875 -0.640625q0.453125 0 0.8125 0.109375q0.359375 0.09375 0.671875 0.28125l-0.25 1.421875q-0.0625 0.265625 -0.328125 0.265625q-0.140625 0 -0.453125 -0.09375q-0.3125 -0.109375 -0.859375 -0.109375q-1.0 0 -1.671875 0.578125q-0.65625 0.5625 -1.109375 1.671875l0 6.875l-1.890625 0zm16.188934 0q-0.40625 0 -0.5 -0.390625l-0.171875 -1.3125q-0.703125 0.84375 -1.59375 1.359375q-0.890625 0.5 -2.03125 0.5q-0.9375 0 -1.703125 -0.359375q-0.75 -0.359375 -1.28125 -1.046875q-0.53126526 -0.703125 -0.82814026 -1.734375q-0.28125 -1.03125 -0.28125 -2.375q0 -1.203125 0.3125 -2.21875q0.328125 -1.03125 0.92189026 -1.78125q0.609375 -0.765625 1.46875 -1.203125q0.875 -0.4375 1.96875 -0.4375q1.0 0 1.703125 0.34375q0.703125 0.328125 1.25 0.9375l0 -5.984375l1.90625 0l0 15.703125l-1.140625 0zm-3.671875 -1.390625q0.921875 0 1.625 -0.421875q0.703125 -0.421875 1.28125 -1.203125l0 -5.234375q-0.515625 -0.703125 -1.140625 -0.984375q-0.625 -0.28125 -1.390625 -0.28125q-1.515625 0 -2.328125 1.078125q-0.796875 1.078125 -0.796875 3.078125q0 1.046875 0.171875 1.8125q0.1875 0.75 0.53125 1.234375q0.359375 0.484375 0.859375 0.703125q0.515625 0.21875 1.1875 0.21875zm9.641083 -9.40625l0 6.890625q0 1.21875 0.5625 1.890625q0.5625 0.671875 1.703125 0.671875q0.828125 0 1.5625 -0.390625q0.75 -0.390625 1.359375 -1.109375l0 -7.953125l1.90625 0l0 10.796875l-1.140625 0q-0.40625 0 -0.5 -0.390625l-0.15625 -1.171875q-0.703125 0.78125 -1.578125 1.265625q-0.875 0.46875 -2.0 0.46875q-0.890625 0 -1.578125 -0.296875q-0.671875 -0.296875 -1.125 -0.828125q-0.453125 -0.53125 -0.6875 -1.28125q-0.234375 -0.765625 -0.234375 -1.671875l0 -6.890625l1.90625 0zm14.483337 -0.171875q0.96875 0 1.796875 0.328125q0.828125 0.3125 1.421875 0.9375q0.59375 0.609375 0.921875 1.515625q0.34375 0.890625 0.34375 2.046875q0 0.453125 -0.09375 0.609375q-0.09375 0.140625 -0.359375 0.140625l-7.1875 0q0.015625 1.015625 0.265625 1.78125q0.265625 0.75 0.703125 1.265625q0.453125 0.5 1.0625 0.75q0.625 0.25 1.390625 0.25q0.71875 0 1.234375 -0.15625q0.515625 -0.171875 0.890625 -0.359375q0.375 -0.203125 0.625 -0.359375q0.25 -0.171875 0.4375 -0.171875q0.234375 0 0.359375 0.1875l0.53125 0.6875q-0.34375 0.421875 -0.84375 0.75q-0.484375 0.3125 -1.046875 0.515625q-0.5625 0.203125 -1.15625 0.296875q-0.59375 0.109375 -1.1875 0.109375q-1.125 0 -2.0625 -0.375q-0.9375 -0.390625 -1.625 -1.109375q-0.6875 -0.734375 -1.078125 -1.8125q-0.375 -1.078125 -0.375 -2.484375q0 -1.125 0.34375 -2.109375q0.34375 -0.984375 0.984375 -1.703125q0.65625 -0.71875 1.59375 -1.125q0.9375 -0.40625 2.109375 -0.40625zm0.046875 1.390625q-1.375 0 -2.171875 0.796875q-0.78125 0.796875 -0.96875 2.203125l5.875 0q0 -0.65625 -0.1875 -1.203125q-0.171875 -0.5625 -0.53125 -0.953125q-0.34375 -0.40625 -0.859375 -0.625q-0.5 -0.21875 -1.15625 -0.21875zm17.21405 7.9375q0.953125 0 1.6875 -0.3125q0.75 -0.328125 1.265625 -0.90625q0.515625 -0.578125 0.78125 -1.375q0.28125 -0.796875 0.28125 -1.765625l0 -9.28125l2.0625 0l0 9.28125q0 1.328125 -0.421875 2.46875q-0.421875 1.125 -1.203125 1.953125q-0.78125 0.828125 -1.921875 1.296875q-1.125 0.46875 -2.53125 0.46875q-1.40625 0 -2.546875 -0.46875q-1.125 -0.46875 -1.921875 -1.296875q-0.78125 -0.828125 -1.203125 -1.953125q-0.421875 -1.140625 -0.421875 -2.46875l0 -9.28125l2.0625 0l0 9.28125q0 0.953125 0.265625 1.765625q0.28125 0.796875 0.796875 1.375q0.515625 0.5625 1.265625 0.890625q0.75 0.328125 1.703125 0.328125zm9.3350525 1.640625l0 -10.796875l1.125 0q0.40625 0 0.515625 0.390625l0.140625 1.171875q0.703125 -0.78125 1.578125 -1.25q0.875 -0.484375 2.015625 -0.484375q0.875 0 1.546875 0.296875q0.6875 0.28125 1.140625 0.828125q0.453125 0.53125 0.6875 1.296875q0.234375 0.75 0.234375 1.671875l0 6.875l-1.890625 0l0 -6.875q0 -1.234375 -0.5625 -1.90625q-0.5625 -0.671875 -1.71875 -0.671875q-0.84375 0 -1.578125 0.40625q-0.71875 0.390625 -1.34375 1.09375l0 7.953125l-1.890625 0zm13.967712 -10.796875l0 10.796875l-1.90625 0l0 -10.796875l1.90625 0zm0.421875 -3.390625q0 0.265625 -0.109375 0.515625q-0.109375 0.234375 -0.296875 0.421875q-0.1875 0.1875 -0.4375 0.296875q-0.25 0.109375 -0.515625 0.109375q-0.28125 0 -0.53125 -0.109375q-0.234375 -0.109375 -0.421875 -0.296875q-0.1875 -0.1875 -0.296875 -0.421875q-0.09375 -0.25 -0.09375 -0.515625q0 -0.28125 0.09375 -0.53125q0.109375 -0.25 0.296875 -0.4375q0.1875 -0.1875 0.421875 -0.296875q0.25 -0.109375 0.53125 -0.109375q0.265625 0 0.515625 0.109375q0.25 0.109375 0.4375 0.296875q0.1875 0.1875 0.296875 0.4375q0.109375 0.25 0.109375 0.53125zm1.5537109 3.390625l1.5625 0q0.21875 0 0.359375 0.125q0.15625 0.109375 0.21875 0.265625l2.75 6.953125q0.140625 0.375 0.21875 0.765625q0.09375 0.390625 0.171875 0.75q0.09375 -0.359375 0.1875 -0.75q0.09375 -0.390625 0.234375 -0.765625l2.78125 -6.953125q0.0625 -0.171875 0.203125 -0.28125q0.140625 -0.109375 0.359375 -0.109375l1.484375 0l-4.40625 10.796875l-1.71875 0l-4.40625 -10.796875zm16.283203 -0.171875q0.96875 0 1.796875 0.328125q0.828125 0.3125 1.421875 0.9375q0.59375 0.609375 0.921875 1.515625q0.34375 0.890625 0.34375 2.046875q0 0.453125 -0.09375 0.609375q-0.09375 0.140625 -0.359375 0.140625l-7.1875 0q0.015625 1.015625 0.265625 1.78125q0.265625 0.75 0.703125 1.265625q0.453125 0.5 1.0625 0.75q0.625 0.25 1.390625 0.25q0.71875 0 1.234375 -0.15625q0.515625 -0.171875 0.890625 -0.359375q0.375 -0.203125 0.625 -0.359375q0.25 -0.171875 0.4375 -0.171875q0.234375 0 0.359375 0.1875l0.53125 0.6875q-0.34375 0.421875 -0.84375 0.75q-0.484375 0.3125 -1.046875 0.515625q-0.5625 0.203125 -1.15625 0.296875q-0.59375 0.109375 -1.1875 0.109375q-1.125 0 -2.0625 -0.375q-0.9375 -0.390625 -1.625 -1.109375q-0.6875 -0.734375 -1.078125 -1.8125q-0.375 -1.078125 -0.375 -2.484375q0 -1.125 0.34375 -2.109375q0.34375 -0.984375 0.984375 -1.703125q0.65625 -0.71875 1.59375 -1.125q0.9375 -0.40625 2.109375 -0.40625zm0.046875 1.390625q-1.375 0 -2.171875 0.796875q-0.78125 0.796875 -0.96875 2.203125l5.875 0q0 -0.65625 -0.1875 -1.203125q-0.171875 -0.5625 -0.53125 -0.953125q-0.34375 -0.40625 -0.859375 -0.625q-0.5 -0.21875 -1.15625 -0.21875zm6.863373 9.578125l0 -10.796875l1.078125 0q0.3125 0 0.421875 0.125q0.125 0.109375 0.171875 0.390625l0.125 1.6875q0.546875 -1.125 1.359375 -1.765625q0.828125 -0.640625 1.921875 -0.640625q0.453125 0 0.8125 0.109375q0.359375 0.09375 0.671875 0.28125l-0.25 1.421875q-0.0625 0.265625 -0.328125 0.265625q-0.140625 0 -0.453125 -0.09375q-0.3125 -0.109375 -0.859375 -0.109375q-1.0 0 -1.671875 0.578125q-0.65625 0.5625 -1.109375 1.671875l0 6.875l-1.890625 0zm14.767059 -9.015625q-0.125 0.234375 -0.390625 0.234375q-0.15625 0 -0.359375 -0.109375q-0.203125 -0.125 -0.5 -0.265625q-0.28125 -0.15625 -0.6875 -0.28125q-0.40625 -0.125 -0.96875 -0.125q-0.484375 0 -0.875 0.125q-0.375 0.125 -0.640625 0.34375q-0.265625 0.203125 -0.421875 0.5q-0.140625 0.28125 -0.140625 0.609375q0 0.40625 0.234375 0.6875q0.25 0.28125 0.640625 0.484375q0.390625 0.203125 0.890625 0.359375q0.5 0.15625 1.03125 0.328125q0.53125 0.171875 1.03125 0.390625q0.5 0.203125 0.890625 0.53125q0.40625 0.3125 0.640625 0.78125q0.234375 0.46875 0.234375 1.109375q0 0.75 -0.265625 1.390625q-0.265625 0.625 -0.796875 1.09375q-0.515625 0.46875 -1.28125 0.734375q-0.75 0.265625 -1.734375 0.265625q-1.125 0 -2.046875 -0.359375q-0.921875 -0.375 -1.5625 -0.953125l0.453125 -0.71875q0.078125 -0.140625 0.1875 -0.21875q0.125 -0.078125 0.328125 -0.078125q0.1875 0 0.390625 0.15625q0.21875 0.140625 0.515625 0.328125q0.3125 0.171875 0.75 0.328125q0.4375 0.15625 1.078125 0.15625q0.5625 0 0.96875 -0.140625q0.421875 -0.15625 0.6875 -0.390625q0.28125 -0.25 0.40625 -0.5625q0.140625 -0.328125 0.140625 -0.6875q0 -0.453125 -0.234375 -0.75q-0.234375 -0.296875 -0.640625 -0.5q-0.390625 -0.203125 -0.90625 -0.359375q-0.5 -0.15625 -1.03125 -0.328125q-0.515625 -0.171875 -1.03125 -0.390625q-0.5 -0.21875 -0.90625 -0.546875q-0.390625 -0.328125 -0.625 -0.8125q-0.234375 -0.484375 -0.234375 -1.1875q0 -0.609375 0.25 -1.171875q0.265625 -0.578125 0.75 -1.015625q0.484375 -0.4375 1.203125 -0.6875q0.71875 -0.25 1.625 -0.25q1.078125 0 1.921875 0.34375q0.84375 0.328125 1.46875 0.90625l-0.4375 0.703125zm5.1938477 -1.78125l0 10.796875l-1.90625 0l0 -10.796875l1.90625 0zm0.421875 -3.390625q0 0.265625 -0.109375 0.515625q-0.109375 0.234375 -0.296875 0.421875q-0.1875 0.1875 -0.4375 0.296875q-0.25 0.109375 -0.515625 0.109375q-0.28125 0 -0.53125 -0.109375q-0.234375 -0.109375 -0.421875 -0.296875q-0.1875 -0.1875 -0.296875 -0.421875q-0.09375 -0.25 -0.09375 -0.515625q0 -0.28125 0.09375 -0.53125q0.109375 -0.25 0.296875 -0.4375q0.1875 -0.1875 0.421875 -0.296875q0.25 -0.109375 0.53125 -0.109375q0.265625 0 0.515625 0.109375q0.25 0.109375 0.4375 0.296875q0.1875 0.1875 0.296875 0.4375q0.109375 0.25 0.109375 0.53125zm6.194336 14.359375q-1.28125 0 -1.96875 -0.71875q-0.6875 -0.71875 -0.6875 -2.0625l0 -6.609375l-1.296875 0q-0.171875 0 -0.296875 -0.09375q-0.109375 -0.109375 -0.109375 -0.3125l0 -0.765625l1.765625 -0.21875l0.4375 -3.34375q0.03125 -0.15625 0.140625 -0.25q0.125 -0.109375 0.296875 -0.109375l0.96875 0l0 3.71875l3.09375 0l0 1.375l-3.09375 0l0 6.484375q0 0.6875 0.328125 1.015625q0.328125 0.328125 0.84375 0.328125q0.3125 0 0.53125 -0.078125q0.21875 -0.078125 0.375 -0.171875q0.15625 -0.09375 0.265625 -0.171875q0.109375 -0.078125 0.203125 -0.078125q0.140625 0 0.265625 0.171875l0.546875 0.90625q-0.484375 0.453125 -1.1875 0.71875q-0.6875 0.265625 -1.421875 0.265625zm7.8459473 3.015625q-0.09375 0.21875 -0.234375 0.34375q-0.140625 0.125 -0.4375 0.125l-1.40625 0l1.96875 -4.28125l-4.453125 -10.171875l1.640625 0q0.234375 0 0.375 0.125q0.140625 0.109375 0.203125 0.265625l2.890625 6.796875q0.09375 0.234375 0.15625 0.46875q0.078125 0.234375 0.140625 0.484375q0.0625 -0.25 0.140625 -0.484375q0.078125 -0.234375 0.171875 -0.46875l2.8125 -6.796875q0.0625 -0.171875 0.203125 -0.28125q0.15625 -0.109375 0.34375 -0.109375l1.515625 0l-6.03125 13.984375z" fill-rule="nonzero"/></g></svg>